<?xml version="1.0" encoding="utf-8"?>
<!-- Generator: Adobe Illustrator 15.0.0, SVG Export Plug-In . SVG Version: 6.00 Build 0)  -->
<!DOCTYPE svg PUBLIC "-//W3C//DTD SVG 1.1//EN" "http://www.w3.org/Graphics/SVG/1.1/DTD/svg11.dtd">
<svg version="1.1" id="Layer_1" xmlns="http://www.w3.org/2000/svg" xmlns:xlink="http://www.w3.org/1999/xlink" x="0px" y="0px"
	 width="360px" height="360px" viewBox="0 0 360 360" enable-background="new 0 0 360 360" xml:space="preserve">
<path fill="#FFFFFF" d="M197.973,67.634c-8.786,5.289-15.736,18.055-12.374,30.859c11.862-17.508,47.918-1.711,59.915-41.903
	c-8.001,6.431-18.437,8.274-23.697,7.674c19.655-8.135,30.898-37.041,13.305-56.799c5.185,23.293-24.447,25.316-47.719,29.671
	c-43.699,8.231-50.829,48.714-31.001,69.366C154.124,82.008,173.64,67.396,197.973,67.634L197.973,67.634L197.973,67.634z"/>
<path fill="#FFFFFF" d="M121.257,127.991c0,0,3.462,8.077,3.493,16.051h100.864c0.011-8.066,3.484-16.051,3.484-16.051
	l-47.915-0.015c6.481-10.731,22.094-28.198,55.097-28.175c35.917,0.027,76.081,29.098,76.247,80.726
	c0.279,77.108-80.313,132.227-137.602,168.249C118.5,312.754,37.54,257.636,37.815,180.527c0.187-51.628,40.33-80.699,76.261-80.726
	c32.997-0.023,48.621,17.443,55.098,28.175L121.257,127.991L121.257,127.991L121.257,127.991L121.257,127.991z M187.172,207.507
	c1.465-20.36,1.946-38.89,6.416-52.34h-36.857c4.462,13.451,4.955,31.98,6.416,52.34c1.808,25.174,6.35,97.259,6.35,97.259h11.332
	C180.829,304.766,185.356,232.681,187.172,207.507L187.172,207.507L187.172,207.507L187.172,207.507z"/>
<path fill="none" d="M187.291,207.648c1.477-20.401,1.958-38.965,6.45-52.444h-36.949c4.493,13.479,4.981,32.043,6.42,52.444
	c1.816,25.221,6.374,97.468,6.374,97.468h11.354C180.94,305.116,185.483,232.869,187.291,207.648L187.291,207.648L187.291,207.648z"
	/>
<path fill="none" d="M121.238,127.991c0,0,3.475,8.073,3.511,16.079h101.048c0.015-8.094,3.508-16.079,3.508-16.079H121.238
	L121.238,127.991L121.238,127.991z"/>
</svg>
