<?xml version="1.0" encoding="utf-8"?>
<!-- Generator: Adobe Illustrator 15.0.0, SVG Export Plug-In . SVG Version: 6.00 Build 0)  -->
<!DOCTYPE svg PUBLIC "-//W3C//DTD SVG 1.1//EN" "http://www.w3.org/Graphics/SVG/1.1/DTD/svg11.dtd">
<svg version="1.1" id="Layer_1" xmlns="http://www.w3.org/2000/svg" xmlns:xlink="http://www.w3.org/1999/xlink" x="0px" y="0px"
	 width="360px" height="216px" viewBox="0 0 360 216" enable-background="new 0 0 360 216" xml:space="preserve">
<g>
	<g>
		<g>
			<g>
				<path fill="#FFFFFF" d="M74.27,38.042c-3.533,2.128-6.328,7.261-4.976,12.41c4.77-7.041,19.27-0.688,24.095-16.851
					c-3.217,2.587-7.414,3.327-9.529,3.085c7.903-3.272,12.424-14.896,5.35-22.842c2.085,9.368-9.831,10.182-19.189,11.933
					c-17.573,3.31-20.441,19.591-12.467,27.896C56.636,43.824,64.484,37.947,74.27,38.042L74.27,38.042L74.27,38.042z"/>
			</g>
		</g>
		<g>
			<g>
				<path fill="#FFFFFF" d="M43.418,62.315c0,0,1.392,3.25,1.404,6.455h40.562c0.005-3.245,1.403-6.455,1.403-6.455l-19.27-0.006
					c2.607-4.315,8.885-11.34,22.158-11.331c14.444,0.01,30.596,11.701,30.663,32.464c0.113,31.009-32.299,53.176-55.337,67.662
					c-22.69-14.485-55.249-36.651-55.138-67.662C9.938,62.68,26.082,50.988,40.532,50.979c13.271-0.011,19.552,7.015,22.158,11.331
					L43.418,62.315L43.418,62.315L43.418,62.315L43.418,62.315z M69.927,94.292c0.589-8.188,0.782-15.639,2.579-21.048h-14.82
					c1.793,5.409,1.991,12.861,2.579,21.048c0.727,10.124,2.554,39.114,2.554,39.114h4.557
					C67.375,133.406,69.197,104.416,69.927,94.292L69.927,94.292L69.927,94.292L69.927,94.292z"/>
			</g>
		</g>
	</g>
	<path fill="none" d="M69.974,94.349c0.595-8.204,0.788-15.67,2.595-21.091H57.71c1.807,5.42,2.002,12.886,2.582,21.091
		c0.73,10.143,2.562,39.197,2.562,39.197h4.567C67.42,133.547,69.247,104.492,69.974,94.349L69.974,94.349L69.974,94.349z"/>
	<path fill="none" d="M43.411,62.315c0,0,1.398,3.247,1.412,6.466H85.46c0.005-3.255,1.41-6.466,1.41-6.466H43.411L43.411,62.315
		L43.411,62.315z"/>
	<path fill="#FFFFFF" d="M154.454,52.172l-3.242-9.426h-0.07l-3.347,9.426H154.454L154.454,52.172z M154.128,36.416l9.604,25.684
		h-5.866l-1.942-5.722h-9.6l-2.017,5.722h-5.683l9.71-25.684H154.128L154.128,36.416z"/>
	<path fill="#FFFFFF" d="M170.383,43.501v2.519h0.073c0.673-0.958,1.48-1.701,2.429-2.23c0.945-0.526,2.031-0.79,3.256-0.79
		c1.171,0,2.248,0.225,3.216,0.682c0.972,0.456,1.711,1.259,2.213,2.408c0.552-0.812,1.3-1.533,2.244-2.158
		c0.949-0.622,2.07-0.933,3.365-0.933c0.983,0,1.896,0.119,2.734,0.358c0.838,0.239,1.561,0.625,2.158,1.152
		c0.602,0.527,1.07,1.217,1.404,2.067c0.336,0.853,0.502,1.876,0.502,3.076v12.445h-5.107V51.56c0-0.624-0.025-1.211-0.07-1.764
		c-0.051-0.549-0.182-1.032-0.396-1.438c-0.215-0.41-0.53-0.732-0.954-0.973c-0.421-0.239-0.99-0.359-1.707-0.359
		c-0.72,0-1.304,0.139-1.746,0.414c-0.445,0.276-0.791,0.638-1.041,1.079c-0.25,0.444-0.421,0.948-0.502,1.51
		c-0.085,0.564-0.126,1.134-0.126,1.708v10.36h-5.108V51.665c0-0.55-0.015-1.095-0.038-1.636c-0.022-0.54-0.123-1.037-0.304-1.491
		c-0.181-0.456-0.481-0.823-0.898-1.099c-0.421-0.276-1.039-0.414-1.857-0.414c-0.236,0-0.559,0.052-0.954,0.163
		c-0.392,0.105-0.777,0.312-1.148,0.612c-0.375,0.299-0.688,0.73-0.954,1.295c-0.266,0.562-0.397,1.299-0.397,2.21v10.792h-5.108
		V43.5h4.819v0.001H170.383z"/>
	<path fill="#FFFFFF" d="M209.252,47.854c-0.611-0.67-1.541-1.006-2.79-1.006c-0.813,0-1.489,0.136-2.032,0.412
		c-0.537,0.276-0.969,0.617-1.295,1.027c-0.32,0.409-0.552,0.841-0.682,1.294c-0.131,0.454-0.211,0.863-0.23,1.222h8.31
		C210.29,49.508,209.863,48.525,209.252,47.854L209.252,47.854z M203.477,57.638c0.769,0.743,1.871,1.116,3.312,1.116
		c1.028,0,1.917-0.258,2.665-0.775c0.742-0.514,1.199-1.059,1.365-1.635h4.494c-0.715,2.23-1.82,3.826-3.306,4.784
		c-1.491,0.961-3.286,1.438-5.399,1.438c-1.461,0-2.779-0.233-3.953-0.7c-1.18-0.47-2.174-1.134-2.986-1.997
		c-0.818-0.863-1.445-1.895-1.893-3.093c-0.442-1.2-0.662-2.517-0.662-3.955c0-1.393,0.227-2.687,0.682-3.886
		c0.456-1.199,1.105-2.236,1.941-3.112c0.839-0.875,1.842-1.563,3.007-2.069c1.159-0.502,2.45-0.752,3.862-0.752
		c1.588,0,2.967,0.306,4.143,0.916c1.174,0.611,2.137,1.433,2.895,2.463c0.752,1.032,1.301,2.206,1.635,3.525
		c0.338,1.32,0.457,2.7,0.361,4.136h-13.418C202.293,55.696,202.707,56.894,203.477,57.638L203.477,57.638z"/>
	<path fill="#FFFFFF" d="M223.512,43.501v3.452h0.071c0.24-0.575,0.567-1.109,0.974-1.601c0.406-0.489,0.873-0.908,1.4-1.257
		c0.525-0.35,1.094-0.617,1.689-0.811c0.604-0.19,1.227-0.285,1.873-0.285c0.336,0,0.707,0.06,1.112,0.181v4.747
		c-0.239-0.05-0.526-0.09-0.862-0.125c-0.338-0.038-0.658-0.055-0.97-0.055c-0.938,0-1.727,0.155-2.373,0.467
		c-0.646,0.312-1.17,0.738-1.565,1.277c-0.396,0.54-0.678,1.169-0.848,1.89c-0.166,0.718-0.25,1.501-0.25,2.338V62.1h-5.109V43.503
		h4.857V43.501L223.512,43.501z"/>
	<path fill="#FFFFFF" d="M237.898,43.501v18.597h-5.107V43.501H237.898L237.898,43.501z M232.791,40.626v-4.21h5.107v4.21H232.791
		L232.791,40.626z"/>
	<path fill="#FFFFFF" d="M250.812,46.849c-0.813,0-1.496,0.186-2.049,0.557c-0.552,0.372-1.005,0.851-1.35,1.437
		c-0.348,0.589-0.592,1.237-0.738,1.945c-0.146,0.707-0.215,1.407-0.215,2.103c0,0.672,0.07,1.355,0.215,2.05
		c0.146,0.695,0.377,1.327,0.703,1.889c0.32,0.562,0.758,1.024,1.311,1.385c0.551,0.359,1.225,0.54,2.018,0.54
		c1.225,0,2.161-0.344,2.824-1.026c0.656-0.682,1.068-1.601,1.238-2.75h4.929c-0.337,2.469-1.294,4.351-2.882,5.646
		c-1.58,1.295-3.607,1.942-6.075,1.942c-1.392,0-2.669-0.233-3.829-0.7c-1.164-0.47-2.153-1.122-2.971-1.96
		c-0.812-0.84-1.45-1.841-1.907-3.005c-0.456-1.162-0.683-2.438-0.683-3.83c0-1.44,0.211-2.775,0.633-4.011
		c0.416-1.235,1.035-2.301,1.853-3.199c0.812-0.901,1.806-1.601,2.986-2.107c1.173-0.502,2.513-0.752,4.024-0.752
		c1.104,0,2.166,0.143,3.186,0.432c1.019,0.285,1.928,0.725,2.734,1.312c0.803,0.586,1.455,1.317,1.957,2.195
		c0.508,0.874,0.793,1.912,0.863,3.111h-4.999C254.254,47.915,252.994,46.849,250.812,46.849L250.812,46.849z"/>
	<path fill="#FFFFFF" d="M273.346,53.448c-0.322,0.108-0.672,0.198-1.041,0.271c-0.371,0.07-0.759,0.13-1.171,0.181
		c-0.405,0.045-0.812,0.105-1.221,0.178c-0.386,0.073-0.761,0.169-1.134,0.288c-0.371,0.121-0.697,0.281-0.973,0.487
		c-0.277,0.2-0.498,0.462-0.662,0.773c-0.172,0.311-0.258,0.708-0.258,1.184c0,0.457,0.086,0.842,0.258,1.154
		c0.164,0.312,0.396,0.558,0.682,0.736c0.285,0.181,0.622,0.306,1.009,0.379c0.381,0.07,0.776,0.107,1.183,0.107
		c1.01,0,1.789-0.168,2.34-0.504c0.55-0.336,0.959-0.738,1.226-1.205c0.261-0.467,0.426-0.941,0.479-1.42
		c0.062-0.482,0.09-0.863,0.09-1.151V53C273.939,53.192,273.671,53.339,273.346,53.448L273.346,53.448z M263.261,46.236
		c0.527-0.793,1.195-1.425,2.013-1.906c0.812-0.479,1.732-0.82,2.75-1.024C269.042,43.1,270.07,43,271.098,43
		c0.94,0,1.885,0.065,2.844,0.195c0.959,0.132,1.836,0.392,2.629,0.773c0.787,0.385,1.436,0.917,1.94,1.601
		c0.5,0.685,0.753,1.591,0.753,2.718v9.677c0,0.839,0.051,1.641,0.146,2.409s0.261,1.341,0.503,1.727h-5.183
		c-0.095-0.286-0.174-0.583-0.229-0.881c-0.061-0.298-0.104-0.604-0.13-0.917c-0.815,0.84-1.772,1.428-2.876,1.764
		s-2.229,0.502-3.383,0.502c-0.889,0-1.717-0.105-2.479-0.321c-0.769-0.216-1.44-0.552-2.019-1.008
		c-0.571-0.457-1.022-1.032-1.35-1.727c-0.32-0.697-0.48-1.522-0.48-2.484c0-1.053,0.186-1.922,0.557-2.604
		c0.372-0.686,0.848-1.23,1.436-1.639c0.588-0.409,1.26-0.714,2.018-0.915c0.753-0.207,1.516-0.366,2.283-0.487
		c0.766-0.12,1.52-0.215,2.266-0.288c0.745-0.073,1.4-0.179,1.979-0.324c0.578-0.143,1.029-0.351,1.365-0.627
		s0.492-0.677,0.467-1.206c0-0.55-0.09-0.989-0.267-1.312c-0.18-0.327-0.421-0.578-0.722-0.758
		c-0.301-0.178-0.646-0.295-1.043-0.355c-0.393-0.061-0.82-0.091-1.273-0.091c-1.011,0-1.798,0.216-2.375,0.647
		c-0.576,0.432-0.916,1.149-1.008,2.158h-5.107C262.434,48.023,262.729,47.026,263.261,46.236L263.261,46.236z"/>
	<path fill="#FFFFFF" d="M288.08,43.501v2.589h0.105c0.646-1.079,1.485-1.862,2.52-2.354c1.029-0.492,2.088-0.737,3.167-0.737
		c1.364,0,2.481,0.185,3.362,0.557c0.873,0.371,1.564,0.888,2.065,1.545c0.502,0.66,0.858,1.466,1.06,2.412
		c0.207,0.945,0.307,1.995,0.307,3.146v11.439h-5.107V51.595c0-1.536-0.235-2.68-0.718-3.435c-0.481-0.756-1.329-1.135-2.555-1.135
		c-1.394,0-2.397,0.414-3.021,1.242c-0.623,0.829-0.938,2.188-0.938,4.082v9.749h-5.105V43.5L288.08,43.501L288.08,43.501z"/>
	<polygon fill="#FFFFFF" points="149.291,72.758 149.291,85.428 162.656,85.428 162.656,72.758 169.92,72.758 169.92,105.776 
		162.656,105.776 162.656,91.532 149.291,91.532 149.291,105.776 142.034,105.776 142.034,72.758 	"/>
	<path fill="#FFFFFF" d="M190.057,87.462c-0.781-0.863-1.981-1.295-3.584-1.295c-1.051,0-1.918,0.179-2.613,0.532
		c-0.69,0.354-1.246,0.795-1.659,1.317c-0.417,0.524-0.714,1.079-0.884,1.666c-0.166,0.584-0.27,1.109-0.299,1.571h10.682
		C191.393,89.59,190.844,88.326,190.057,87.462L190.057,87.462z M182.635,100.041c0.988,0.958,2.404,1.435,4.252,1.435
		c1.328,0,2.469-0.332,3.426-0.994c0.955-0.662,1.541-1.366,1.758-2.105h5.781c-0.924,2.868-2.344,4.918-4.256,6.15
		c-1.912,1.235-4.227,1.853-6.938,1.853c-1.882,0-3.574-0.302-5.085-0.904c-1.51-0.603-2.79-1.456-3.839-2.567
		c-1.049-1.108-1.856-2.436-2.428-3.977c-0.567-1.54-0.853-3.236-0.853-5.088c0-1.787,0.291-3.453,0.877-4.994
		c0.587-1.541,1.42-2.875,2.497-4c1.081-1.126,2.367-2.012,3.861-2.66c1.496-0.647,3.151-0.974,4.971-0.974
		c2.035,0,3.812,0.396,5.322,1.179c1.51,0.788,2.75,1.845,3.723,3.169c0.969,1.327,1.671,2.838,2.102,4.534
		c0.432,1.697,0.588,3.467,0.463,5.316H181.02C181.109,97.544,181.646,99.087,182.635,100.041L182.635,100.041z"/>
	<path fill="#FFFFFF" d="M216.006,94.654c-0.417,0.138-0.863,0.253-1.346,0.348c-0.477,0.09-0.977,0.168-1.5,0.23
		c-0.526,0.06-1.049,0.139-1.575,0.231c-0.491,0.09-0.979,0.215-1.456,0.369c-0.477,0.156-0.893,0.364-1.25,0.625
		c-0.35,0.261-0.637,0.592-0.852,0.994c-0.215,0.402-0.326,0.911-0.326,1.526c0,0.586,0.111,1.081,0.326,1.48
		c0.215,0.401,0.506,0.716,0.877,0.948c0.371,0.229,0.804,0.394,1.295,0.486c0.492,0.091,1.004,0.139,1.525,0.139
		c1.295,0,2.299-0.215,3.008-0.647c0.707-0.432,1.233-0.949,1.574-1.548c0.338-0.603,0.547-1.21,0.623-1.827
		c0.073-0.617,0.114-1.111,0.114-1.48v-2.453C216.77,94.323,216.421,94.516,216.006,94.654L216.006,94.654z M203.029,85.383
		c0.677-1.019,1.545-1.837,2.589-2.455c1.049-0.614,2.228-1.053,3.544-1.315c1.309-0.263,2.623-0.396,3.953-0.396
		c1.199,0,2.42,0.085,3.652,0.256c1.23,0.17,2.359,0.501,3.373,0.993c1.019,0.495,1.852,1.179,2.498,2.058
		c0.646,0.878,0.973,2.042,0.973,3.493v12.44c0,1.079,0.062,2.113,0.187,3.101c0.12,0.984,0.337,1.727,0.647,2.219h-6.664
		c-0.12-0.372-0.221-0.748-0.297-1.134c-0.08-0.384-0.135-0.778-0.164-1.179c-1.049,1.079-2.279,1.836-3.699,2.268
		s-2.865,0.647-4.346,0.647c-1.145,0-2.209-0.141-3.19-0.417c-0.989-0.278-1.853-0.709-2.59-1.294
		c-0.743-0.587-1.32-1.325-1.736-2.221c-0.415-0.896-0.622-1.96-0.622-3.191c0-1.357,0.235-2.474,0.713-3.352
		c0.481-0.881,1.094-1.581,1.853-2.105c0.757-0.522,1.619-0.919,2.59-1.18c0.974-0.26,1.951-0.469,2.94-0.622
		c0.981-0.155,1.955-0.28,2.91-0.372c0.953-0.093,1.801-0.23,2.543-0.416c0.738-0.186,1.324-0.454,1.758-0.809
		c0.433-0.356,0.633-0.874,0.603-1.551c0-0.708-0.114-1.271-0.347-1.688c-0.23-0.416-0.543-0.741-0.924-0.971
		c-0.387-0.231-0.834-0.387-1.346-0.461c-0.507-0.079-1.053-0.116-1.641-0.116c-1.295,0-2.312,0.276-3.051,0.833
		c-0.738,0.552-1.174,1.478-1.295,2.775h-6.568C201.965,87.679,202.352,86.398,203.029,85.383L203.029,85.383z"/>
	<path fill="#FFFFFF" d="M234.943,81.866v4.44h0.091c0.307-0.741,0.723-1.426,1.25-2.058c0.521-0.633,1.124-1.171,1.801-1.619
		c0.677-0.446,1.405-0.795,2.172-1.041c0.772-0.246,1.576-0.372,2.409-0.372c0.432,0,0.908,0.081,1.432,0.233v6.104
		c-0.308-0.06-0.678-0.116-1.109-0.16c-0.432-0.048-0.848-0.07-1.25-0.07c-1.198,0-2.217,0.2-3.051,0.6
		c-0.832,0.401-1.5,0.948-2.013,1.644c-0.507,0.693-0.868,1.5-1.084,2.428c-0.216,0.924-0.325,1.928-0.325,3.006v10.774h-6.57
		V81.866H234.943L234.943,81.866z"/>
	<path fill="#FFFFFF" d="M262.393,81.866v4.395h-4.812v11.838c0,1.109,0.187,1.852,0.558,2.221c0.37,0.369,1.107,0.555,2.217,0.555
		c0.373,0,0.729-0.015,1.063-0.045c0.342-0.03,0.663-0.079,0.974-0.141v5.089c-0.557,0.093-1.174,0.155-1.852,0.185
		c-0.678,0.031-1.34,0.046-1.988,0.046c-1.018,0-1.982-0.07-2.89-0.208c-0.907-0.138-1.71-0.41-2.403-0.811
		c-0.697-0.398-1.244-0.969-1.646-1.711c-0.396-0.738-0.598-1.711-0.598-2.911V86.26h-3.979v-4.396h3.979v-7.166h6.564v7.166
		L262.393,81.866L262.393,81.866z"/>
	<path fill="#FFFFFF" d="M154.454,131.818l-3.242-9.424h-0.07l-3.347,9.424H154.454L154.454,131.818z M154.128,116.062l9.604,25.684
		h-5.866l-1.942-5.721h-9.6l-2.017,5.721h-5.683l9.71-25.684H154.128L154.128,116.062z"/>
	<path fill="#FFFFFF" d="M169.719,137.124c0.231,0.397,0.521,0.721,0.88,0.971c0.364,0.253,0.775,0.438,1.242,0.558
		c0.467,0.121,0.952,0.182,1.456,0.182c0.361,0,0.737-0.042,1.134-0.125c0.397-0.084,0.758-0.216,1.079-0.396
		c0.323-0.181,0.597-0.418,0.812-0.72c0.215-0.299,0.32-0.677,0.32-1.132c0-0.768-0.509-1.345-1.53-1.729
		c-1.019-0.381-2.439-0.766-4.26-1.149c-0.743-0.167-1.47-0.364-2.178-0.595c-0.708-0.229-1.335-0.526-1.888-0.898
		c-0.551-0.371-0.995-0.84-1.33-1.4c-0.339-0.565-0.502-1.256-0.502-2.071c0-1.195,0.231-2.181,0.697-2.947
		c0.467-0.769,1.083-1.373,1.852-1.815c0.768-0.445,1.631-0.756,2.594-0.937c0.958-0.183,1.942-0.271,2.945-0.271
		c1.008,0,1.985,0.097,2.936,0.285c0.943,0.193,1.789,0.519,2.534,0.973c0.743,0.455,1.36,1.062,1.852,1.816
		c0.491,0.754,0.782,1.709,0.883,2.859h-4.859c-0.068-0.982-0.445-1.648-1.114-1.996c-0.672-0.348-1.465-0.521-2.371-0.521
		c-0.291,0-0.604,0.02-0.938,0.054c-0.336,0.036-0.643,0.114-0.918,0.233c-0.276,0.119-0.507,0.293-0.698,0.521
		c-0.196,0.229-0.291,0.534-0.291,0.918c0,0.454,0.171,0.825,0.507,1.113c0.333,0.287,0.771,0.521,1.309,0.703
		c0.543,0.179,1.16,0.341,1.857,0.483c0.69,0.144,1.4,0.302,2.118,0.47c0.743,0.164,1.47,0.371,2.178,0.609
		c0.706,0.241,1.335,0.557,1.887,0.953c0.551,0.396,0.999,0.889,1.334,1.475c0.332,0.588,0.502,1.312,0.502,2.176
		c0,1.226-0.246,2.248-0.736,3.076c-0.492,0.828-1.136,1.493-1.926,1.998c-0.791,0.502-1.699,0.854-2.718,1.062
		c-1.021,0.202-2.052,0.304-3.112,0.304c-1.079,0-2.132-0.107-3.161-0.324c-1.034-0.215-1.952-0.574-2.755-1.078
		c-0.803-0.5-1.461-1.168-1.978-1.994c-0.516-0.828-0.797-1.864-0.847-3.111h4.857C169.377,136.256,169.493,136.729,169.719,137.124
		L169.719,137.124z"/>
	<path fill="#FFFFFF" d="M189.038,137.124c0.226,0.397,0.517,0.721,0.878,0.971c0.361,0.253,0.773,0.438,1.238,0.558
		c0.473,0.121,0.955,0.182,1.461,0.182c0.355,0,0.738-0.042,1.135-0.125c0.393-0.084,0.752-0.216,1.079-0.396
		c0.321-0.181,0.593-0.418,0.808-0.72c0.217-0.299,0.321-0.677,0.321-1.132c0-0.768-0.507-1.345-1.524-1.729
		c-1.02-0.381-2.445-0.766-4.268-1.149c-0.742-0.167-1.465-0.364-2.172-0.595c-0.711-0.229-1.342-0.526-1.893-0.898
		c-0.552-0.371-0.996-0.84-1.332-1.4c-0.338-0.565-0.502-1.256-0.502-2.071c0-1.195,0.231-2.181,0.703-2.947
		c0.467-0.769,1.082-1.373,1.852-1.815c0.768-0.445,1.633-0.756,2.592-0.937c0.959-0.183,1.941-0.271,2.951-0.271
		c1.004,0,1.982,0.097,2.93,0.285c0.943,0.193,1.791,0.519,2.535,0.973c0.742,0.455,1.359,1.062,1.852,1.816
		c0.492,0.754,0.787,1.709,0.883,2.859h-4.857c-0.07-0.982-0.441-1.648-1.114-1.996c-0.672-0.348-1.465-0.521-2.372-0.521
		c-0.285,0-0.604,0.02-0.935,0.054c-0.336,0.036-0.644,0.114-0.918,0.233c-0.276,0.119-0.513,0.293-0.703,0.521
		s-0.286,0.534-0.286,0.918c0,0.454,0.166,0.825,0.503,1.113c0.336,0.287,0.772,0.521,1.313,0.703
		c0.537,0.179,1.154,0.341,1.853,0.483c0.693,0.144,1.4,0.302,2.123,0.47c0.742,0.164,1.466,0.371,2.172,0.609
		c0.709,0.241,1.341,0.557,1.894,0.953s0.994,0.889,1.33,1.475c0.336,0.588,0.502,1.312,0.502,2.176
		c0,1.226-0.246,2.248-0.738,3.076c-0.491,0.828-1.135,1.493-1.922,1.998c-0.793,0.502-1.696,0.854-2.715,1.062
		c-1.023,0.202-2.06,0.304-3.111,0.304c-1.078,0-2.139-0.107-3.166-0.324c-1.035-0.215-1.953-0.574-2.756-1.078
		c-0.803-0.5-1.463-1.168-1.979-1.994c-0.515-0.828-0.797-1.864-0.844-3.111h4.855C188.691,136.256,188.809,136.729,189.038,137.124
		L189.038,137.124z"/>
	<path fill="#FFFFFF" d="M208.8,134.643c0.146,0.707,0.392,1.344,0.737,1.904c0.352,0.564,0.812,1.014,1.385,1.35
		c0.577,0.336,1.295,0.506,2.158,0.506c0.869,0,1.592-0.17,2.178-0.506c0.588-0.336,1.055-0.785,1.405-1.35
		c0.347-0.562,0.592-1.197,0.739-1.904c0.139-0.707,0.214-1.434,0.214-2.178c0-0.742-0.075-1.473-0.214-2.193
		c-0.147-0.72-0.394-1.354-0.739-1.905c-0.351-0.554-0.817-1.002-1.405-1.351c-0.586-0.348-1.309-0.52-2.178-0.52
		c-0.863,0-1.581,0.174-2.158,0.52c-0.572,0.349-1.033,0.797-1.385,1.351c-0.346,0.551-0.592,1.187-0.737,1.905
		c-0.141,0.721-0.216,1.449-0.216,2.193C208.584,133.21,208.659,133.936,208.8,134.643L208.8,134.643z M204.158,128.42
		c0.457-1.211,1.104-2.242,1.947-3.093c0.838-0.854,1.842-1.511,3.02-1.979c1.174-0.467,2.494-0.701,3.955-0.701
		c1.465,0,2.789,0.234,3.979,0.701c1.186,0.469,2.197,1.127,3.037,1.979c0.838,0.851,1.484,1.882,1.941,3.093
		c0.455,1.21,0.688,2.561,0.688,4.045c0,1.488-0.231,2.83-0.688,4.03c-0.457,1.198-1.105,2.226-1.941,3.075
		c-0.84,0.852-1.853,1.506-3.037,1.959c-1.188,0.455-2.514,0.684-3.979,0.684c-1.461,0-2.781-0.229-3.955-0.684
		c-1.178-0.453-2.184-1.107-3.02-1.959c-0.844-0.852-1.49-1.877-1.947-3.075c-0.452-1.2-0.684-2.542-0.684-4.03
		C203.477,130.979,203.706,129.63,204.158,128.42L204.158,128.42z"/>
	<path fill="#FFFFFF" d="M234.913,126.496c-0.812,0-1.494,0.186-2.047,0.557c-0.552,0.371-1.003,0.85-1.351,1.438
		c-0.346,0.587-0.593,1.237-0.736,1.94c-0.146,0.709-0.217,1.41-0.217,2.105c0,0.672,0.07,1.355,0.217,2.05
		c0.145,0.695,0.375,1.324,0.701,1.89c0.321,0.562,0.758,1.024,1.311,1.385c0.552,0.359,1.225,0.541,2.018,0.541
		c1.225,0,2.162-0.342,2.824-1.027c0.657-0.682,1.069-1.602,1.24-2.752h4.927c-0.336,2.472-1.294,4.354-2.88,5.646
		c-1.581,1.295-3.607,1.942-6.077,1.942c-1.391,0-2.67-0.233-3.829-0.7c-1.164-0.47-2.152-1.121-2.971-1.96
		c-0.812-0.841-1.449-1.842-1.906-3.005c-0.457-1.162-0.682-2.439-0.682-3.83c0-1.439,0.211-2.775,0.633-4.012
		c0.414-1.234,1.033-2.301,1.852-3.201c0.812-0.898,1.806-1.602,2.984-2.104c1.176-0.504,2.516-0.754,4.025-0.754
		c1.104,0,2.168,0.143,3.187,0.432c1.019,0.285,1.927,0.725,2.734,1.312c0.803,0.586,1.455,1.317,1.957,2.192
		c0.508,0.875,0.793,1.914,0.862,3.11h-4.998C238.355,127.562,237.098,126.496,234.913,126.496L234.913,126.496z"/>
	<path fill="#FFFFFF" d="M251.932,123.148v18.598h-5.108v-18.598H251.932L251.932,123.148z M246.822,120.271v-4.209h5.107v4.209
		H246.822L246.822,120.271z"/>
	<path fill="#FFFFFF" d="M266.729,133.096c-0.32,0.106-0.672,0.197-1.043,0.271c-0.371,0.069-0.758,0.131-1.17,0.179
		c-0.406,0.051-0.812,0.107-1.22,0.182c-0.386,0.072-0.763,0.168-1.134,0.287c-0.371,0.12-0.698,0.282-0.975,0.484
		c-0.275,0.206-0.498,0.462-0.662,0.775c-0.17,0.312-0.256,0.707-0.256,1.187c0,0.454,0.086,0.839,0.256,1.147
		c0.164,0.314,0.396,0.562,0.683,0.74c0.286,0.18,0.622,0.305,1.008,0.379c0.382,0.069,0.778,0.106,1.185,0.106
		c1.009,0,1.787-0.167,2.339-0.505c0.552-0.336,0.959-0.737,1.225-1.204c0.261-0.47,0.427-0.94,0.481-1.42
		c0.061-0.481,0.091-0.865,0.091-1.151v-1.906C267.32,132.839,267.055,132.986,266.729,133.096L266.729,133.096z M256.643,125.883
		c0.526-0.792,1.194-1.428,2.012-1.906c0.812-0.479,1.731-0.818,2.75-1.024c1.02-0.204,2.049-0.306,3.076-0.306
		c0.938,0,1.883,0.066,2.84,0.195c0.959,0.135,1.838,0.393,2.631,0.776c0.787,0.383,1.435,0.915,1.941,1.601
		c0.502,0.682,0.752,1.588,0.752,2.715v9.674c0,0.843,0.051,1.646,0.146,2.412c0.095,0.768,0.262,1.344,0.502,1.728h-5.179
		c-0.096-0.288-0.176-0.582-0.232-0.881c-0.059-0.302-0.105-0.604-0.129-0.917c-0.812,0.84-1.771,1.426-2.875,1.764
		c-1.104,0.334-2.229,0.502-3.382,0.502c-0.89,0-1.718-0.107-2.479-0.324c-0.769-0.215-1.439-0.55-2.018-1.006
		c-0.572-0.457-1.023-1.031-1.35-1.727c-0.32-0.695-0.481-1.523-0.481-2.482c0-1.056,0.185-1.925,0.558-2.609
		c0.371-0.683,0.846-1.227,1.435-1.635c0.587-0.406,1.26-0.711,2.019-0.918c0.752-0.203,1.514-0.363,2.282-0.483
		s1.521-0.216,2.269-0.288c0.744-0.07,1.4-0.18,1.978-0.324c0.578-0.145,1.028-0.354,1.364-0.629
		c0.338-0.275,0.488-0.678,0.468-1.205c0-0.553-0.091-0.988-0.267-1.312c-0.182-0.321-0.422-0.576-0.723-0.754
		c-0.301-0.182-0.646-0.303-1.043-0.361c-0.392-0.059-0.818-0.088-1.275-0.088c-1.008,0-1.795,0.216-2.371,0.646
		c-0.578,0.432-0.914,1.148-1.01,2.158h-5.107C255.814,127.671,256.109,126.674,256.643,125.883L256.643,125.883z"/>
	<path fill="#FFFFFF" d="M286.82,123.148v3.418h-3.743v9.207c0,0.863,0.146,1.44,0.43,1.728c0.287,0.288,0.863,0.433,1.726,0.433
		c0.289,0,0.565-0.011,0.832-0.037c0.266-0.021,0.517-0.06,0.758-0.106v3.957c-0.432,0.073-0.913,0.12-1.44,0.144
		c-0.526,0.024-1.043,0.037-1.547,0.037c-0.791,0-1.543-0.055-2.249-0.162c-0.705-0.107-1.333-0.315-1.869-0.629
		c-0.542-0.312-0.969-0.756-1.279-1.33c-0.312-0.578-0.467-1.334-0.467-2.268v-10.973h-3.091v-3.416h3.091v-5.575h5.108v5.575h3.741
		V123.148z"/>
	<path fill="#FFFFFF" d="M294.514,123.148v18.598h-5.109v-18.598H294.514L294.514,123.148z M289.402,120.271v-4.209h5.111v4.209
		H289.402L289.402,120.271z"/>
	<path fill="#FFFFFF" d="M303.291,134.643c0.146,0.707,0.391,1.344,0.738,1.904c0.351,0.564,0.812,1.014,1.384,1.35
		c0.575,0.336,1.295,0.506,2.158,0.506c0.869,0,1.591-0.17,2.176-0.506c0.589-0.336,1.057-0.785,1.407-1.35
		c0.346-0.562,0.591-1.197,0.737-1.904c0.141-0.707,0.216-1.434,0.216-2.178c0-0.742-0.076-1.473-0.216-2.193
		c-0.146-0.72-0.393-1.354-0.737-1.905c-0.352-0.554-0.818-1.002-1.407-1.351c-0.585-0.348-1.307-0.52-2.176-0.52
		c-0.863,0-1.583,0.174-2.158,0.52c-0.572,0.349-1.033,0.797-1.384,1.351c-0.348,0.551-0.594,1.187-0.738,1.905
		c-0.143,0.721-0.216,1.449-0.216,2.193C303.075,133.21,303.148,133.936,303.291,134.643L303.291,134.643z M298.654,128.42
		c0.455-1.211,1.104-2.242,1.939-3.093c0.84-0.854,1.848-1.511,3.021-1.979c1.174-0.467,2.493-0.701,3.954-0.701
		c1.465,0,2.789,0.234,3.979,0.701c1.183,0.469,2.197,1.127,3.036,1.979c0.836,0.851,1.484,1.882,1.941,3.093
		c0.457,1.21,0.688,2.561,0.688,4.045c0,1.488-0.23,2.83-0.688,4.03c-0.457,1.198-1.105,2.226-1.941,3.075
		c-0.839,0.852-1.854,1.506-3.036,1.959c-1.188,0.455-2.514,0.684-3.979,0.684c-1.461,0-2.78-0.229-3.954-0.684
		c-1.176-0.453-2.184-1.107-3.021-1.959s-1.484-1.877-1.939-3.075c-0.457-1.2-0.687-2.542-0.687-4.03
		C297.969,130.979,298.197,129.63,298.654,128.42L298.654,128.42z"/>
	<path fill="#FFFFFF" d="M325.38,123.148v2.59h0.104c0.647-1.078,1.486-1.863,2.521-2.355c1.029-0.49,2.088-0.736,3.167-0.736
		c1.365,0,2.484,0.187,3.362,0.56c0.873,0.371,1.564,0.885,2.065,1.545c0.502,0.659,0.859,1.463,1.062,2.411
		c0.205,0.945,0.305,1.995,0.305,3.146v11.438h-5.107v-10.504c0-1.535-0.235-2.679-0.719-3.435
		c-0.479-0.756-1.329-1.135-2.554-1.135c-1.39,0-2.401,0.412-3.021,1.241c-0.621,0.829-0.935,2.188-0.935,4.083v9.747h-5.107
		v-18.597H325.38L325.38,123.148z"/>
	<path fill="#FFFFFF" d="M349.417,135.885c0.785,0,1.48-0.076,1.48-1.001c0-0.771-0.754-0.862-1.386-0.862h-1.265v1.863H349.417
		L349.417,135.885z M348.247,139.506h-1.048v-6.379h2.418c1.541,0,2.329,0.54,2.329,1.831c0,1.157-0.708,1.634-1.667,1.741
		l1.787,2.806h-1.186l-1.65-2.728h-0.982L348.247,139.506L348.247,139.506z M349.387,131.447c-2.496,0-4.436,1.955-4.436,4.762
		c0,2.619,1.695,4.76,4.436,4.76c2.464,0,4.405-1.939,4.405-4.76C353.792,133.402,351.851,131.447,349.387,131.447L349.387,131.447z
		 M349.387,141.968c-3.312,0-5.67-2.478-5.67-5.759c0-3.469,2.62-5.764,5.67-5.764c3.021,0,5.639,2.295,5.639,5.764
		C355.024,139.674,352.407,141.968,349.387,141.968L349.387,141.968z"/>
	<polygon fill="#FFFFFF" points="144.169,172.479 148.272,172.479 148.272,198.175 144.169,198.175 	"/>
	<path fill="#FFFFFF" d="M152.838,179.566h4.105v18.607h-4.105V179.566L152.838,179.566z M152.838,172.479h4.105v3.888h-4.105
		V172.479L152.838,172.479z"/>
	<path fill="#FFFFFF" d="M159.562,179.566h3.061v-1.547c0-4.75,2.484-5.541,5.146-5.541c1.297,0,2.23,0.069,2.878,0.252v3.203
		c-0.537-0.146-1.079-0.218-1.907-0.218c-1.116,0-2.015,0.396-2.015,1.944v1.906h3.491v3.059h-3.491v15.549h-4.102v-15.549h-3.061
		V179.566L159.562,179.566z"/>
	<path fill="#FFFFFF" d="M185.503,187.232c-0.144-2.59-1.903-4.932-4.677-4.932c-2.842,0-4.784,2.161-4.896,4.932H185.503
		L185.503,187.232z M175.931,189.934c0,2.916,1.585,5.506,5.002,5.506c2.373,0,3.814-1.043,4.533-3.097h3.889
		c-0.898,4.067-4.354,6.337-8.42,6.337c-5.833,0-9.105-4.068-9.105-9.791c0-5.289,3.455-9.824,8.997-9.824
		c5.866,0,9.464,5.291,8.782,10.869H175.931L175.931,189.934z"/>
	<path fill="#FFFFFF" d="M202.764,179.605h2.268v18.568h-2.268V179.605L202.764,179.605z M202.764,172.479h2.268v3.635h-2.268
		V172.479L202.764,172.479z"/>
	<path fill="#FFFFFF" d="M220.502,185.04c-0.107-2.81-2.268-4.067-4.857-4.067c-2.018,0-4.391,0.789-4.391,3.201
		c0,2.018,2.303,2.734,3.852,3.131l3.021,0.686c2.591,0.396,5.292,1.906,5.292,5.146c0,4.03-3.996,5.579-7.45,5.579
		c-4.316,0-7.271-2.016-7.63-6.55h2.269c0.18,3.06,2.447,4.642,5.47,4.642c2.123,0,5.073-0.937,5.073-3.527
		c0-2.157-2.017-2.879-4.066-3.383l-2.914-0.646c-2.953-0.794-5.184-1.799-5.184-4.968c0-3.778,3.705-5.219,6.981-5.219
		c3.705,0,6.656,1.942,6.802,5.977L220.502,185.04L220.502,185.04z"/>
	<polygon fill="#FFFFFF" points="234.811,179.605 237.223,179.605 241.973,195.514 242.044,195.514 246.578,179.605 
		249.135,179.605 253.669,195.514 253.741,195.514 258.491,179.605 260.902,179.605 254.93,198.175 252.443,198.175 
		247.875,182.557 247.803,182.557 243.27,198.175 240.785,198.175 	"/>
	<path fill="#FFFFFF" d="M263.301,172.479h2.268v10.328h0.072c0.827-2.231,3.307-3.744,5.938-3.744c5.216,0,6.799,2.735,6.799,7.164
		v11.947h-2.265v-11.59c0-3.201-1.045-5.613-4.715-5.613c-3.601,0-5.76,2.734-5.83,6.371v10.832h-2.268V172.479L263.301,172.479z"/>
	<path fill="#FFFFFF" d="M280.562,179.605h2.408l6.118,15.834l5.726-15.834h2.269l-8.062,21.41
		c-1.299,3.133-2.054,4.033-4.896,4.033c-0.9-0.038-1.369-0.038-1.729-0.181v-1.907c0.541,0.107,1.043,0.18,1.545,0.18
		c2.019,0,2.486-1.188,3.242-2.914l0.793-2.125L280.562,179.605L280.562,179.605z"/>
	<path fill="#FFFFFF" d="M310.275,184.941h-0.878v-4.455h-0.028l-1.746,4.455h-0.559l-1.748-4.455h-0.025v4.455h-0.881v-5.336h1.359
		l1.595,4.054l1.565-4.054h1.347L310.275,184.941L310.275,184.941z M303.32,180.316h-1.672v4.625h-0.879v-4.625h-1.672v-0.711h4.223
		V180.316L303.32,180.316z"/>
</g>
</svg>
