<?xml version="1.0" encoding="utf-8"?>
<!-- Generator: Adobe Illustrator 15.0.0, SVG Export Plug-In . SVG Version: 6.00 Build 0)  -->
<!DOCTYPE svg PUBLIC "-//W3C//DTD SVG 1.1//EN" "http://www.w3.org/Graphics/SVG/1.1/DTD/svg11.dtd">
<svg version="1.1" id="Layer_1" xmlns="http://www.w3.org/2000/svg" xmlns:xlink="http://www.w3.org/1999/xlink" x="0px" y="0px"
	 width="500px" height="500px" viewBox="0 0 500 500" enable-background="new 0 0 500 500" xml:space="preserve">
<g>
	<g>
		<defs>
			<rect id="SVGID_1_" x="33.173" y="134.585" width="435.822" height="241.426"/>
		</defs>
		<clipPath id="SVGID_2_">
			<use xlink:href="#SVGID_1_"  overflow="visible"/>
		</clipPath>
		<path clip-path="url(#SVGID_2_)" fill="#ED1C24" d="M114.497,165.138c-4.461,2.687-7.989,9.169-6.282,15.67
			c6.022-8.89,24.331-0.868,30.423-21.277c-4.062,3.267-9.361,4.201-12.032,3.896c9.979-4.131,15.688-18.809,6.755-28.842
			c2.633,11.829-12.413,12.856-24.229,15.067c-22.189,4.179-25.811,24.736-15.742,35.223
			C92.232,172.438,102.142,165.018,114.497,165.138L114.497,165.138L114.497,165.138z"/>
		<path clip-path="url(#SVGID_2_)" fill="#ED1C24" d="M75.543,195.786c0,0,1.758,4.103,1.773,8.151h51.216
			c0.006-4.097,1.771-8.151,1.771-8.151l-24.331-0.007c3.292-5.449,11.219-14.319,27.978-14.307
			c18.238,0.013,38.632,14.775,38.717,40.991c0.143,39.154-40.782,67.142-69.872,85.434c-28.651-18.292-69.761-46.279-69.621-85.434
			c0.095-26.216,20.479-40.979,38.724-40.991c16.756-0.013,24.688,8.857,27.978,14.307L75.543,195.786L75.543,195.786
			L75.543,195.786L75.543,195.786z M109.014,236.163c0.744-10.338,0.988-19.747,3.257-26.577H93.557
			c2.265,6.83,2.515,16.239,3.257,26.577c0.918,12.783,3.225,49.387,3.225,49.387h5.754
			C105.792,285.55,108.092,248.946,109.014,236.163L109.014,236.163L109.014,236.163L109.014,236.163z"/>
	</g>
	<path fill="#FFFFFF" d="M109.073,236.235c0.751-10.359,0.995-19.787,3.276-26.631H93.588c2.281,6.844,2.528,16.271,3.26,26.631
		c0.922,12.806,3.235,49.492,3.235,49.492h5.766C105.849,285.728,108.155,249.041,109.073,236.235L109.073,236.235L109.073,236.235z
		"/>
	<path fill="#FFFFFF" d="M75.533,195.786c0,0,1.765,4.1,1.783,8.164h51.311c0.007-4.109,1.78-8.164,1.78-8.164H75.533
		L75.533,195.786L75.533,195.786z"/>
	<path d="M215.742,182.98l-4.093-11.902h-0.089l-4.226,11.902H215.742L215.742,182.98z M215.331,163.085l12.127,32.429h-7.407
		l-2.452-7.224h-12.121l-2.547,7.224h-7.176l12.261-32.429H215.331L215.331,163.085z"/>
	<path d="M235.856,172.031v3.181h0.092c0.85-1.21,1.869-2.147,3.067-2.816c1.194-0.665,2.565-0.997,4.112-0.997
		c1.479,0,2.838,0.284,4.061,0.861c1.227,0.576,2.161,1.59,2.795,3.041c0.696-1.026,1.641-1.936,2.835-2.725
		c1.198-0.785,2.614-1.178,4.249-1.178c1.241,0,2.395,0.151,3.453,0.452c1.058,0.302,1.97,0.789,2.725,1.454
		c0.76,0.666,1.35,1.537,1.773,2.611c0.425,1.077,0.634,2.369,0.634,3.884v15.714h-6.45v-13.307c0-0.788-0.031-1.529-0.089-2.227
		c-0.063-0.694-0.228-1.303-0.5-1.815c-0.272-0.517-0.672-0.925-1.207-1.229c-0.529-0.301-1.249-0.453-2.154-0.453
		c-0.909,0-1.645,0.175-2.205,0.523c-0.562,0.348-0.998,0.805-1.315,1.362c-0.316,0.561-0.531,1.197-0.633,1.907
		c-0.108,0.712-0.159,1.432-0.159,2.157v13.081h-6.45v-13.173c0-0.694-0.019-1.382-0.047-2.065
		c-0.028-0.682-0.155-1.309-0.384-1.883c-0.228-0.576-0.608-1.039-1.134-1.387c-0.532-0.349-1.312-0.523-2.345-0.523
		c-0.298,0-0.706,0.066-1.204,0.206c-0.494,0.133-0.981,0.393-1.45,0.773c-0.473,0.377-0.868,0.922-1.204,1.635
		c-0.336,0.709-0.501,1.641-0.501,2.791v13.626h-6.45v-23.482H235.856L235.856,172.031z"/>
	<path d="M284.934,177.528c-0.773-0.846-1.945-1.271-3.523-1.271c-1.026,0-1.882,0.171-2.565,0.52
		c-0.679,0.349-1.224,0.779-1.635,1.296c-0.406,0.517-0.697,1.062-0.862,1.635s-0.266,1.09-0.291,1.543h10.492
		C286.245,179.616,285.706,178.374,284.934,177.528L284.934,177.528z M277.641,189.881c0.97,0.938,2.363,1.409,4.182,1.409
		c1.299,0,2.421-0.326,3.364-0.979c0.938-0.649,1.515-1.337,1.724-2.065h5.677c-0.905,2.816-2.3,4.831-4.175,6.041
		c-1.882,1.214-4.15,1.815-6.818,1.815c-1.844,0-3.51-0.295-4.992-0.884c-1.489-0.593-2.744-1.432-3.771-2.521
		c-1.032-1.09-1.824-2.393-2.389-3.906c-0.558-1.515-0.836-3.178-0.836-4.993c0-1.759,0.285-3.393,0.861-4.907
		s1.395-2.823,2.452-3.929c1.059-1.105,2.325-1.974,3.796-2.613c1.463-0.634,3.092-0.95,4.878-0.95c2.003,0,3.745,0.386,5.228,1.156
		c1.482,0.772,2.699,1.809,3.656,3.11c0.95,1.303,1.641,2.785,2.065,4.451c0.425,1.667,0.577,3.409,0.456,5.222h-16.942
		C276.146,187.429,276.671,188.942,277.641,189.881L277.641,189.881z"/>
	<path d="M302.94,172.031v4.359h0.089c0.304-0.726,0.716-1.4,1.229-2.021c0.513-0.617,1.103-1.146,1.768-1.587
		s1.381-0.779,2.135-1.023c0.761-0.24,1.547-0.36,2.364-0.36c0.424,0,0.893,0.075,1.406,0.228v5.994
		c-0.304-0.063-0.665-0.114-1.09-0.158c-0.425-0.048-0.83-0.07-1.223-0.07c-1.185,0-2.18,0.196-2.997,0.59
		c-0.817,0.393-1.477,0.932-1.977,1.612c-0.501,0.682-0.855,1.477-1.071,2.386c-0.209,0.906-0.316,1.895-0.316,2.952v10.582h-6.45
		v-23.482H302.94L302.94,172.031z"/>
	<path d="M321.106,172.031v23.482h-6.45v-23.482H321.106L321.106,172.031z M314.656,168.401v-5.316h6.45v5.316H314.656
		L314.656,168.401z"/>
	<path d="M337.409,176.258c-1.026,0-1.888,0.234-2.585,0.703s-1.268,1.074-1.704,1.815c-0.438,0.744-0.748,1.562-0.932,2.455
		s-0.272,1.777-0.272,2.655c0,0.849,0.089,1.711,0.272,2.588c0.184,0.878,0.475,1.676,0.887,2.386
		c0.405,0.71,0.957,1.293,1.654,1.749c0.696,0.453,1.546,0.681,2.547,0.681c1.546,0,2.73-0.434,3.567-1.296
		c0.83-0.861,1.35-2.021,1.564-3.472h6.223c-0.425,3.117-1.635,5.493-3.638,7.128c-1.995,1.635-4.556,2.452-7.673,2.452
		c-1.755,0-3.37-0.295-4.834-0.884c-1.47-0.593-2.719-1.416-3.751-2.475c-1.026-1.061-1.831-2.325-2.408-3.795
		c-0.576-1.467-0.861-3.079-0.861-4.835c0-1.818,0.266-3.504,0.798-5.065c0.526-1.559,1.306-2.905,2.339-4.039
		c1.025-1.138,2.28-2.021,3.77-2.661c1.482-0.634,3.174-0.95,5.082-0.95c1.394,0,2.736,0.18,4.023,0.545
		c1.286,0.36,2.433,0.915,3.453,1.656c1.014,0.741,1.837,1.663,2.471,2.772c0.64,1.103,1.001,2.414,1.09,3.928h-6.311
		C341.756,177.604,340.165,176.258,337.409,176.258L337.409,176.258z"/>
	<path d="M365.861,184.59c-0.405,0.136-0.846,0.25-1.314,0.342c-0.469,0.089-0.957,0.165-1.477,0.229
		c-0.513,0.057-1.026,0.133-1.542,0.225c-0.485,0.092-0.961,0.213-1.43,0.364c-0.469,0.152-0.881,0.355-1.229,0.615
		c-0.349,0.253-0.628,0.583-0.837,0.976c-0.215,0.393-0.323,0.894-0.323,1.495c0,0.577,0.108,1.064,0.323,1.457
		c0.209,0.394,0.501,0.704,0.862,0.929c0.36,0.228,0.785,0.387,1.273,0.479c0.481,0.089,0.981,0.136,1.492,0.136
		c1.276,0,2.259-0.212,2.955-0.637c0.694-0.425,1.211-0.932,1.547-1.521c0.329-0.589,0.538-1.188,0.607-1.793
		c0.076-0.608,0.114-1.09,0.114-1.454v-2.408C366.612,184.267,366.273,184.453,365.861,184.59L365.861,184.59z M353.129,175.484
		c0.666-1.001,1.509-1.799,2.541-2.407c1.026-0.605,2.187-1.036,3.473-1.293c1.286-0.26,2.585-0.386,3.881-0.386
		c1.188,0,2.379,0.082,3.589,0.247c1.211,0.167,2.319,0.494,3.32,0.976c0.995,0.487,1.812,1.159,2.452,2.021
		c0.631,0.865,0.95,2.009,0.95,3.432v12.219c0,1.059,0.063,2.072,0.184,3.042c0.121,0.969,0.33,1.694,0.634,2.18h-6.542
		c-0.12-0.361-0.219-0.735-0.288-1.112c-0.076-0.377-0.133-0.764-0.165-1.159c-1.029,1.061-2.239,1.803-3.631,2.227
		c-1.394,0.425-2.812,0.634-4.271,0.634c-1.121,0-2.167-0.133-3.13-0.405c-0.969-0.272-1.818-0.697-2.547-1.273
		c-0.723-0.577-1.293-1.303-1.704-2.18c-0.406-0.881-0.608-1.923-0.608-3.137c0-1.33,0.234-2.427,0.703-3.288
		c0.469-0.865,1.07-1.553,1.812-2.069c0.741-0.516,1.59-0.902,2.547-1.156c0.95-0.26,1.913-0.462,2.883-0.614
		c0.967-0.152,1.917-0.272,2.86-0.364c0.941-0.092,1.769-0.226,2.5-0.409c0.729-0.181,1.299-0.443,1.724-0.792
		c0.424-0.349,0.621-0.855,0.589-1.523c0-0.694-0.114-1.248-0.336-1.657c-0.228-0.412-0.532-0.729-0.912-0.957
		c-0.38-0.225-0.817-0.373-1.317-0.449c-0.495-0.076-1.036-0.114-1.609-0.114c-1.274,0-2.269,0.272-2.997,0.817
		c-0.729,0.545-1.157,1.451-1.274,2.725h-6.449C352.084,177.74,352.458,176.482,353.129,175.484L353.129,175.484z"/>
	<path d="M384.468,172.031v3.27h0.133c0.817-1.362,1.876-2.351,3.181-2.972c1.3-0.621,2.636-0.931,3.998-0.931
		c1.724,0,3.134,0.234,4.245,0.703c1.104,0.469,1.978,1.121,2.611,1.951c0.633,0.833,1.083,1.851,1.337,3.045
		c0.26,1.194,0.386,2.519,0.386,3.973v14.443h-6.449v-13.262c0-1.939-0.299-3.384-0.906-4.337c-0.608-0.954-1.68-1.433-3.226-1.433
		c-1.758,0-3.028,0.523-3.814,1.568c-0.785,1.046-1.182,2.763-1.182,5.154v12.309h-6.447v-23.482H384.468L384.468,172.031z"/>
	<polygon points="209.223,208.972 209.223,224.97 226.099,224.97 226.099,208.972 235.271,208.972 235.271,250.663 226.099,250.663 
		226.099,232.678 209.223,232.678 209.223,250.663 200.061,250.663 200.061,208.972 209.223,208.972 	"/>
	<path d="M260.697,227.539c-0.988-1.09-2.503-1.635-4.526-1.635c-1.325,0-2.421,0.226-3.299,0.672
		c-0.874,0.447-1.574,1.004-2.097,1.663c-0.526,0.662-0.9,1.362-1.115,2.104c-0.209,0.738-0.339,1.4-0.377,1.983h13.486
		C262.383,230.226,261.692,228.629,260.697,227.539L260.697,227.539z M251.326,243.421c1.248,1.21,3.035,1.812,5.37,1.812
		c1.676,0,3.114-0.419,4.324-1.255c1.204-0.836,1.945-1.724,2.218-2.658h7.3c-1.166,3.621-2.959,6.21-5.373,7.765
		c-2.414,1.56-5.336,2.339-8.76,2.339c-2.377,0-4.515-0.381-6.422-1.141c-1.907-0.761-3.523-1.838-4.848-3.241
		c-1.324-1.4-2.344-3.076-3.066-5.021c-0.716-1.945-1.077-4.087-1.077-6.425c0-2.256,0.367-4.359,1.108-6.305
		c0.742-1.945,1.793-3.63,3.152-5.05c1.365-1.422,2.988-2.541,4.876-3.358s3.979-1.229,6.276-1.229c2.568,0,4.812,0.5,6.719,1.488
		c1.907,0.995,3.473,2.329,4.701,4.002c1.224,1.676,2.11,3.583,2.655,5.725s0.741,4.378,0.583,6.713h-21.78
		C249.4,240.269,250.078,242.217,251.326,243.421L251.326,243.421z"/>
	<path d="M293.462,236.619c-0.526,0.174-1.09,0.32-1.698,0.44c-0.602,0.114-1.235,0.212-1.895,0.291
		c-0.665,0.076-1.324,0.175-1.989,0.292c-0.621,0.114-1.236,0.272-1.838,0.466c-0.602,0.196-1.128,0.459-1.578,0.788
		c-0.443,0.33-0.805,0.748-1.076,1.255c-0.272,0.507-0.412,1.15-0.412,1.927c0,0.741,0.14,1.365,0.412,1.869
		c0.271,0.507,0.64,0.905,1.108,1.197c0.469,0.291,1.014,0.497,1.635,0.614c0.621,0.114,1.268,0.175,1.926,0.175
		c1.635,0,2.902-0.272,3.796-0.817s1.559-1.198,1.989-1.955c0.425-0.761,0.69-1.527,0.786-2.307
		c0.095-0.779,0.146-1.403,0.146-1.869v-3.098C294.425,236.201,293.987,236.445,293.462,236.619L293.462,236.619z M277.076,224.913
		c0.855-1.286,1.952-2.319,3.27-3.099c1.324-0.776,2.813-1.33,4.474-1.66c1.653-0.332,3.313-0.5,4.993-0.5
		c1.514,0,3.054,0.107,4.612,0.323c1.553,0.215,2.979,0.633,4.258,1.254c1.286,0.624,2.338,1.489,3.155,2.598
		c0.817,1.109,1.229,2.579,1.229,4.41v15.708c0,1.362,0.076,2.667,0.234,3.915c0.152,1.242,0.425,2.18,0.817,2.801h-8.414
		c-0.152-0.469-0.279-0.944-0.374-1.432c-0.102-0.485-0.171-0.982-0.209-1.489c-1.324,1.362-2.877,2.319-4.67,2.864
		s-3.618,0.817-5.487,0.817c-1.444,0-2.788-0.178-4.029-0.526c-1.249-0.352-2.339-0.896-3.27-1.635
		c-0.938-0.741-1.667-1.673-2.192-2.804c-0.526-1.131-0.786-2.475-0.786-4.029c0-1.714,0.298-3.124,0.9-4.232
		c0.608-1.112,1.381-1.996,2.338-2.658c0.956-0.659,2.046-1.16,3.27-1.489c1.229-0.329,2.464-0.593,3.713-0.786
		c1.241-0.196,2.471-0.354,3.675-0.469c1.204-0.117,2.274-0.291,3.212-0.525c0.932-0.234,1.673-0.573,2.218-1.021
		c0.545-0.449,0.799-1.103,0.761-1.958c0-0.894-0.146-1.605-0.438-2.132c-0.291-0.525-0.685-0.935-1.166-1.226
		c-0.487-0.292-1.052-0.488-1.698-0.583c-0.64-0.099-1.33-0.146-2.071-0.146c-1.635,0-2.921,0.349-3.853,1.052
		c-0.932,0.697-1.482,1.866-1.635,3.504h-8.294C275.733,227.812,276.221,226.196,277.076,224.913L277.076,224.913z"/>
	<path d="M317.374,220.472v5.607h0.114c0.387-0.935,0.912-1.8,1.578-2.598c0.659-0.799,1.419-1.479,2.274-2.044
		c0.855-0.563,1.774-1.004,2.743-1.314c0.976-0.311,1.99-0.469,3.042-0.469c0.545,0,1.146,0.102,1.806,0.294v7.708
		c-0.387-0.076-0.855-0.146-1.4-0.202c-0.545-0.061-1.071-0.089-1.578-0.089c-1.514,0-2.8,0.253-3.853,0.757
		c-1.051,0.507-1.894,1.198-2.54,2.075c-0.64,0.875-1.097,1.895-1.369,3.066c-0.272,1.166-0.411,2.434-0.411,3.796v13.604h-8.295
		v-30.191H317.374L317.374,220.472z"/>
	<path d="M352.033,220.472v5.55h-6.076v14.947c0,1.4,0.234,2.338,0.703,2.804s1.4,0.7,2.801,0.7c0.469,0,0.919-0.019,1.343-0.057
		c0.431-0.038,0.837-0.099,1.229-0.178v6.425c-0.703,0.117-1.482,0.196-2.338,0.234s-1.692,0.058-2.51,0.058
		c-1.286,0-2.503-0.089-3.649-0.264c-1.146-0.174-2.16-0.517-3.035-1.023c-0.881-0.503-1.571-1.223-2.078-2.16
		c-0.5-0.932-0.754-2.161-0.754-3.675v-17.812h-5.024v-5.55h5.024v-9.048h8.288v9.048H352.033L352.033,220.472z"/>
	<path d="M215.742,283.545l-4.093-11.899h-0.089l-4.226,11.899H215.742L215.742,283.545z M215.331,263.652l12.127,32.429h-7.407
		l-2.452-7.221h-12.121l-2.547,7.221h-7.176l12.261-32.429H215.331L215.331,263.652z"/>
	<path d="M235.017,290.245c0.292,0.501,0.659,0.909,1.112,1.226c0.46,0.317,0.979,0.552,1.568,0.704
		c0.589,0.151,1.201,0.228,1.838,0.228c0.456,0,0.931-0.054,1.432-0.158c0.501-0.107,0.957-0.272,1.362-0.501
		c0.408-0.228,0.754-0.528,1.026-0.909c0.272-0.377,0.405-0.855,0.405-1.429c0-0.969-0.643-1.698-1.933-2.183
		c-1.286-0.481-3.079-0.966-5.379-1.451c-0.938-0.212-1.856-0.462-2.75-0.751c-0.894-0.288-1.686-0.665-2.383-1.134
		c-0.696-0.469-1.257-1.062-1.679-1.771c-0.428-0.713-0.634-1.585-0.634-2.614c0-1.511,0.292-2.753,0.881-3.723
		c0.589-0.969,1.368-1.732,2.338-2.293c0.97-0.562,2.06-0.954,3.276-1.182c1.21-0.229,2.452-0.34,3.719-0.34
		c1.273,0,2.506,0.121,3.707,0.361c1.191,0.244,2.259,0.653,3.199,1.227c0.938,0.576,1.718,1.34,2.338,2.293
		c0.621,0.954,0.989,2.158,1.115,3.612h-6.136c-0.086-1.242-0.562-2.082-1.407-2.522c-0.849-0.437-1.85-0.655-2.994-0.655
		c-0.367,0-0.763,0.022-1.185,0.066c-0.425,0.044-0.811,0.143-1.159,0.295c-0.349,0.151-0.64,0.37-0.881,0.659
		c-0.247,0.288-0.367,0.674-0.367,1.159c0,0.573,0.215,1.042,0.64,1.406c0.421,0.364,0.973,0.659,1.653,0.888
		c0.685,0.225,1.464,0.431,2.345,0.611c0.871,0.181,1.768,0.38,2.674,0.592c0.938,0.209,1.856,0.469,2.75,0.771
		c0.891,0.304,1.686,0.703,2.383,1.203c0.696,0.501,1.261,1.122,1.685,1.863c0.419,0.741,0.634,1.657,0.634,2.747
		c0,1.546-0.311,2.838-0.931,3.884c-0.621,1.045-1.433,1.885-2.431,2.521c-0.998,0.634-2.145,1.08-3.431,1.34
		c-1.289,0.257-2.592,0.384-3.929,0.384c-1.362,0-2.692-0.137-3.991-0.409c-1.306-0.272-2.465-0.725-3.479-1.361
		c-1.014-0.634-1.844-1.477-2.497-2.52c-0.652-1.045-1.007-2.354-1.07-3.928h6.133C234.586,289.148,234.732,289.744,235.017,290.245
		L235.017,290.245z"/>
	<path d="M259.411,290.245c0.285,0.501,0.652,0.909,1.109,1.226c0.456,0.317,0.976,0.552,1.564,0.704
		c0.596,0.151,1.204,0.228,1.844,0.228c0.45,0,0.932-0.054,1.433-0.158c0.494-0.107,0.95-0.272,1.362-0.501
		c0.405-0.228,0.747-0.528,1.02-0.909c0.272-0.377,0.405-0.855,0.405-1.429c0-0.969-0.64-1.698-1.926-2.183
		c-1.286-0.481-3.086-0.966-5.386-1.451c-0.938-0.212-1.85-0.462-2.743-0.751c-0.897-0.288-1.695-0.665-2.39-1.134
		c-0.696-0.469-1.257-1.062-1.682-1.771c-0.425-0.713-0.634-1.585-0.634-2.614c0-1.511,0.295-2.753,0.888-3.723
		c0.589-0.969,1.368-1.732,2.338-2.293c0.969-0.562,2.062-0.954,3.272-1.182c1.21-0.229,2.452-0.34,3.726-0.34
		c1.268,0,2.503,0.121,3.7,0.361c1.191,0.244,2.262,0.653,3.2,1.227c0.938,0.576,1.717,1.34,2.338,2.293
		c0.621,0.954,0.994,2.158,1.115,3.612h-6.134c-0.089-1.242-0.558-2.082-1.406-2.522c-0.85-0.437-1.851-0.655-2.997-0.655
		c-0.361,0-0.761,0.022-1.179,0.066c-0.425,0.044-0.812,0.143-1.159,0.295c-0.349,0.151-0.646,0.37-0.888,0.659
		c-0.24,0.288-0.361,0.674-0.361,1.159c0,0.573,0.21,1.042,0.634,1.406c0.425,0.364,0.976,0.659,1.66,0.888
		c0.678,0.225,1.457,0.431,2.338,0.611c0.875,0.181,1.768,0.38,2.681,0.592c0.938,0.209,1.85,0.469,2.743,0.771
		c0.894,0.304,1.691,0.703,2.389,1.203c0.697,0.501,1.255,1.122,1.68,1.863c0.424,0.741,0.633,1.657,0.633,2.747
		c0,1.546-0.311,2.838-0.931,3.884c-0.621,1.045-1.433,1.885-2.427,2.521c-1.002,0.634-2.142,1.08-3.428,1.34
		c-1.293,0.257-2.599,0.384-3.929,0.384c-1.362,0-2.699-0.137-3.998-0.409c-1.306-0.272-2.465-0.725-3.479-1.361
		c-1.014-0.634-1.848-1.477-2.5-2.52c-0.649-1.045-1.004-2.354-1.064-3.928h6.13C258.974,289.148,259.12,289.744,259.411,290.245
		L259.411,290.245z"/>
	<path d="M284.363,287.112c0.184,0.893,0.494,1.694,0.931,2.404c0.444,0.713,1.027,1.279,1.749,1.704
		c0.729,0.425,1.635,0.637,2.725,0.637c1.097,0,2.009-0.212,2.75-0.637s1.331-0.991,1.774-1.704c0.438-0.71,0.747-1.512,0.932-2.404
		c0.177-0.894,0.271-1.81,0.271-2.75c0-0.938-0.095-1.86-0.271-2.77c-0.185-0.909-0.494-1.711-0.932-2.407
		c-0.443-0.697-1.033-1.265-1.774-1.705c-0.741-0.437-1.653-0.655-2.75-0.655c-1.09,0-1.996,0.219-2.725,0.655
		c-0.722,0.44-1.305,1.008-1.749,1.705c-0.437,0.696-0.747,1.498-0.931,2.407c-0.178,0.909-0.272,1.831-0.272,2.77
		C284.091,285.303,284.186,286.219,284.363,287.112L284.363,287.112z M278.502,279.255c0.577-1.53,1.394-2.832,2.459-3.906
		c1.058-1.077,2.325-1.907,3.813-2.499c1.483-0.59,3.149-0.885,4.993-0.885c1.851,0,3.523,0.295,5.024,0.885
		c1.496,0.592,2.775,1.422,3.834,2.499c1.058,1.074,1.875,2.376,2.452,3.906c0.576,1.527,0.868,3.231,0.868,5.107
		c0,1.878-0.292,3.573-0.868,5.088c-0.577,1.514-1.395,2.81-2.452,3.884c-1.059,1.074-2.338,1.9-3.834,2.475
		c-1.501,0.573-3.174,0.861-5.024,0.861c-1.844,0-3.51-0.288-4.993-0.861c-1.488-0.574-2.756-1.4-3.813-2.475
		c-1.065-1.074-1.882-2.37-2.459-3.884c-0.57-1.515-0.861-3.21-0.861-5.088C277.641,282.486,277.932,280.782,278.502,279.255
		L278.502,279.255z"/>
	<path d="M317.336,276.825c-1.026,0-1.888,0.234-2.585,0.703s-1.267,1.074-1.704,1.815s-0.748,1.562-0.932,2.452
		c-0.184,0.894-0.272,1.78-0.272,2.658c0,0.849,0.089,1.711,0.272,2.588c0.184,0.878,0.476,1.673,0.888,2.386
		c0.405,0.71,0.956,1.293,1.653,1.749c0.697,0.453,1.546,0.681,2.547,0.681c1.546,0,2.731-0.431,3.567-1.296
		c0.83-0.861,1.35-2.021,1.565-3.475h6.222c-0.425,3.12-1.635,5.496-3.637,7.131c-1.996,1.635-4.556,2.452-7.673,2.452
		c-1.756,0-3.371-0.295-4.835-0.884c-1.47-0.593-2.718-1.416-3.751-2.475c-1.026-1.062-1.831-2.325-2.407-3.795
		c-0.577-1.467-0.862-3.079-0.862-4.835c0-1.818,0.267-3.504,0.799-5.065c0.525-1.559,1.305-2.905,2.338-4.043
		c1.026-1.134,2.28-2.021,3.77-2.654c1.483-0.637,3.175-0.954,5.082-0.954c1.394,0,2.737,0.181,4.023,0.545
		c1.286,0.361,2.433,0.916,3.453,1.657c1.014,0.741,1.837,1.666,2.471,2.769c0.641,1.106,1.001,2.418,1.09,3.929h-6.311
		C321.683,278.172,320.093,276.825,317.336,276.825L317.336,276.825z"/>
	<path d="M338.822,272.599v23.482h-6.45v-23.482H338.822L338.822,272.599z M332.372,268.965v-5.312h6.45v5.312H332.372
		L332.372,268.965z"/>
	<path d="M357.508,285.157c-0.406,0.136-0.85,0.25-1.318,0.342c-0.469,0.089-0.957,0.165-1.477,0.226
		c-0.513,0.062-1.026,0.136-1.539,0.228c-0.488,0.092-0.964,0.213-1.433,0.364c-0.469,0.152-0.881,0.355-1.229,0.611
		c-0.349,0.26-0.628,0.583-0.837,0.979c-0.215,0.393-0.323,0.894-0.323,1.498c0,0.573,0.108,1.059,0.323,1.451
		c0.209,0.396,0.501,0.706,0.862,0.932c0.361,0.228,0.785,0.387,1.273,0.479c0.481,0.089,0.982,0.136,1.495,0.136
		c1.273,0,2.256-0.212,2.952-0.637c0.697-0.425,1.211-0.932,1.547-1.521c0.329-0.593,0.538-1.188,0.607-1.793
		c0.076-0.608,0.114-1.093,0.114-1.454v-2.408C358.255,284.834,357.919,285.021,357.508,285.157L357.508,285.157z M344.771,276.052
		c0.666-1.001,1.509-1.803,2.541-2.407c1.026-0.605,2.187-1.036,3.473-1.296c1.286-0.257,2.585-0.384,3.884-0.384
		c1.185,0,2.376,0.083,3.586,0.247c1.211,0.168,2.319,0.495,3.32,0.979c0.995,0.484,1.812,1.156,2.452,2.021
		c0.634,0.861,0.95,2.005,0.95,3.428v12.216c0,1.062,0.063,2.075,0.184,3.045c0.121,0.969,0.33,1.694,0.634,2.18h-6.539
		c-0.12-0.364-0.222-0.735-0.294-1.112c-0.073-0.38-0.133-0.764-0.162-1.159c-1.026,1.061-2.236,1.802-3.631,2.227
		c-1.394,0.422-2.812,0.634-4.27,0.634c-1.122,0-2.168-0.137-3.131-0.409c-0.969-0.272-1.818-0.693-2.547-1.27
		c-0.723-0.577-1.293-1.303-1.704-2.18c-0.405-0.878-0.608-1.924-0.608-3.134c0-1.334,0.234-2.43,0.703-3.295
		c0.469-0.861,1.07-1.549,1.812-2.065c0.741-0.513,1.59-0.899,2.547-1.159c0.95-0.257,1.913-0.46,2.883-0.611
		c0.97-0.152,1.92-0.272,2.864-0.364c0.938-0.089,1.768-0.226,2.496-0.409c0.729-0.181,1.299-0.446,1.724-0.795
		c0.425-0.346,0.617-0.855,0.589-1.521c0-0.697-0.114-1.248-0.336-1.657c-0.228-0.408-0.532-0.729-0.912-0.953
		c-0.38-0.229-0.817-0.381-1.317-0.457c-0.494-0.072-1.033-0.11-1.609-0.11c-1.274,0-2.269,0.272-2.997,0.817
		c-0.729,0.545-1.153,1.451-1.274,2.725h-6.449C343.727,278.308,344.101,277.05,344.771,276.052L344.771,276.052z"/>
	<path d="M382.878,272.599v4.315h-4.728v11.627c0,1.09,0.184,1.818,0.542,2.18c0.364,0.364,1.09,0.545,2.18,0.545
		c0.364,0,0.713-0.013,1.049-0.045c0.336-0.028,0.652-0.076,0.957-0.136v4.996c-0.545,0.092-1.153,0.151-1.819,0.18
		c-0.665,0.032-1.317,0.048-1.954,0.048c-0.998,0-1.948-0.069-2.839-0.206c-0.89-0.136-1.683-0.398-2.36-0.795
		c-0.684-0.393-1.223-0.953-1.615-1.679c-0.394-0.729-0.59-1.683-0.59-2.861v-13.854h-3.902v-4.315h3.902v-7.039h6.45v7.039H382.878
		L382.878,272.599z"/>
	<path d="M392.591,272.599v23.482h-6.453v-23.482H392.591L392.591,272.599z M386.138,268.965v-5.312h6.453v5.312H386.138
		L386.138,268.965z"/>
	<path d="M403.673,287.112c0.184,0.893,0.494,1.694,0.932,2.404c0.443,0.713,1.026,1.279,1.748,1.704
		c0.726,0.425,1.635,0.637,2.725,0.637c1.097,0,2.009-0.212,2.747-0.637c0.744-0.425,1.334-0.991,1.777-1.704
		c0.437-0.71,0.747-1.512,0.932-2.404c0.177-0.894,0.272-1.81,0.272-2.75c0-0.938-0.096-1.86-0.272-2.77
		c-0.185-0.909-0.495-1.711-0.932-2.407c-0.443-0.697-1.033-1.265-1.777-1.705c-0.738-0.437-1.65-0.655-2.747-0.655
		c-1.09,0-1.999,0.219-2.725,0.655c-0.722,0.44-1.305,1.008-1.748,1.705c-0.438,0.696-0.748,1.498-0.932,2.407
		c-0.178,0.909-0.272,1.831-0.272,2.77C403.4,285.303,403.495,286.219,403.673,287.112L403.673,287.112z M397.818,279.255
		c0.576-1.53,1.394-2.832,2.452-3.906c1.058-1.077,2.331-1.907,3.814-2.499c1.482-0.59,3.148-0.885,4.992-0.885
		c1.851,0,3.523,0.295,5.024,0.885c1.492,0.592,2.775,1.422,3.834,2.499c1.055,1.074,1.875,2.376,2.452,3.906
		c0.576,1.527,0.868,3.231,0.868,5.107c0,1.878-0.292,3.573-0.868,5.088c-0.577,1.514-1.397,2.81-2.452,3.884
		c-1.059,1.074-2.342,1.9-3.834,2.475c-1.501,0.573-3.174,0.861-5.024,0.861c-1.844,0-3.51-0.288-4.992-0.861
		c-1.483-0.574-2.757-1.4-3.814-2.475c-1.059-1.074-1.876-2.37-2.452-3.884c-0.577-1.515-0.865-3.21-0.865-5.088
		C396.953,282.486,397.241,280.782,397.818,279.255L397.818,279.255z"/>
	<path d="M431.564,272.599v3.27h0.13c0.82-1.362,1.879-2.354,3.184-2.975c1.299-0.618,2.636-0.929,3.998-0.929
		c1.724,0,3.137,0.234,4.245,0.704c1.103,0.469,1.978,1.118,2.61,1.951c0.634,0.833,1.084,1.847,1.338,3.045
		c0.26,1.194,0.386,2.519,0.386,3.973v14.443h-6.45v-13.262c0-1.939-0.298-3.384-0.906-4.337c-0.607-0.954-1.679-1.433-3.225-1.433
		c-1.755,0-3.032,0.522-3.814,1.568c-0.785,1.046-1.179,2.763-1.179,5.154v12.309h-6.45v-23.482H431.564L431.564,272.599z"/>
	<path d="M461.915,288.68c0.991,0,1.869-0.098,1.869-1.264c0-0.973-0.951-1.09-1.749-1.09h-1.597v2.354H461.915L461.915,288.68z
		 M460.438,293.252h-1.324v-8.054h3.054c1.945,0,2.94,0.682,2.94,2.312c0,1.461-0.894,2.062-2.104,2.199l2.256,3.542h-1.495
		l-2.085-3.444h-1.241V293.252L460.438,293.252z M461.876,283.076c-3.151,0-5.601,2.471-5.601,6.013c0,3.308,2.142,6.01,5.601,6.01
		c3.111,0,5.563-2.449,5.563-6.01C467.439,285.547,464.987,283.076,461.876,283.076L461.876,283.076z M461.876,296.362
		c-4.182,0-7.159-3.13-7.159-7.273c0-4.379,3.308-7.277,7.159-7.277c3.814,0,7.119,2.898,7.119,7.277
		C468.995,293.464,465.69,296.362,461.876,296.362L461.876,296.362z"/>
	<polygon fill="#ED1C24" points="202.757,334.887 207.937,334.887 207.937,367.331 202.757,367.331 202.757,334.887 	"/>
	<path fill="#ED1C24" d="M213.702,343.836h5.184v23.495h-5.184V343.836L213.702,343.836z M213.702,334.887h5.184v4.907h-5.184
		V334.887L213.702,334.887z"/>
	<path fill="#ED1C24" d="M222.192,343.836h3.865v-1.954c0-5.997,3.137-6.995,6.498-6.995c1.638,0,2.816,0.088,3.634,0.316v4.046
		c-0.678-0.184-1.362-0.275-2.408-0.275c-1.409,0-2.544,0.5-2.544,2.455v2.407h4.407v3.862h-4.407v19.633h-5.18v-19.633h-3.865
		V343.836L222.192,343.836z"/>
	<path fill="#ED1C24" d="M254.947,353.515c-0.181-3.27-2.404-6.226-5.905-6.226c-3.589,0-6.041,2.728-6.181,6.226H254.947
		L254.947,353.515z M242.861,356.924c0,3.681,2.002,6.953,6.317,6.953c2.997,0,4.815-1.317,5.725-3.909h4.907
		c-1.134,5.136-5.497,8-10.632,8c-7.363,0-11.497-5.136-11.497-12.362c0-6.678,4.362-12.406,11.36-12.406
		c7.407,0,11.95,6.682,11.089,13.725H242.861L242.861,356.924z"/>
	<path d="M276.74,343.884h2.864v23.447h-2.864V343.884L276.74,343.884z M276.74,334.887h2.864v4.587h-2.864V334.887L276.74,334.887z
		"/>
	<path d="M299.139,350.746c-0.136-3.546-2.863-5.136-6.133-5.136c-2.548,0-5.544,0.998-5.544,4.042c0,2.548,2.908,3.453,4.862,3.954
		l3.814,0.865c3.272,0.5,6.682,2.407,6.682,6.497c0,5.088-5.044,7.043-9.406,7.043c-5.452,0-9.181-2.544-9.634-8.269h2.863
		c0.226,3.861,3.09,5.86,6.907,5.86c2.68,0,6.405-1.182,6.405-4.454c0-2.725-2.544-3.634-5.135-4.271l-3.679-0.817
		c-3.729-1.001-6.545-2.271-6.545-6.272c0-4.771,4.679-6.59,8.816-6.59c4.68,0,8.405,2.455,8.589,7.547H299.139L299.139,350.746z"/>
	<polygon points="317.206,343.884 320.251,343.884 326.248,363.97 326.34,363.97 332.064,343.884 335.293,343.884 341.018,363.97 
		341.109,363.97 347.106,343.884 350.151,343.884 342.608,367.331 339.472,367.331 333.702,347.609 333.61,347.609 327.886,367.331 
		324.75,367.331 317.206,343.884 	"/>
	<path d="M353.18,334.887h2.861v13.039h0.092c1.045-2.816,4.175-4.727,7.499-4.727c6.586,0,8.585,3.456,8.585,9.045v15.087h-2.86
		v-14.634c0-4.042-1.318-7.087-5.953-7.087c-4.546,0-7.271,3.453-7.362,8.044v13.677h-2.861V334.887L353.18,334.887z"/>
	<path d="M374.977,343.884h3.041l7.724,19.993l7.229-19.993h2.864l-10.179,27.036c-1.639,3.954-2.592,5.091-6.182,5.091
		c-1.137-0.047-1.729-0.047-2.183-0.228v-2.408c0.685,0.137,1.318,0.226,1.951,0.226c2.548,0,3.14-1.499,4.094-3.679l1.001-2.684
		L374.977,343.884L374.977,343.884z"/>
	<path d="M412.492,350.622h-1.108v-5.626h-0.035l-2.205,5.626h-0.706l-2.208-5.626h-0.032v5.626h-1.111v-6.738h1.717l2.012,5.119
		l1.979-5.119h1.698V350.622L412.492,350.622z M403.711,344.783h-2.11v5.839h-1.111v-5.839h-2.11v-0.899h5.332V344.783
		L403.711,344.783z"/>
</g>
</svg>
