<?xml version="1.0" encoding="utf-8"?>
<!-- Generator: Adobe Illustrator 15.0.0, SVG Export Plug-In . SVG Version: 6.00 Build 0)  -->
<!DOCTYPE svg PUBLIC "-//W3C//DTD SVG 1.1//EN" "http://www.w3.org/Graphics/SVG/1.1/DTD/svg11.dtd">
<svg version="1.1" id="Layer_1" xmlns="http://www.w3.org/2000/svg" xmlns:xlink="http://www.w3.org/1999/xlink" x="0px" y="0px"
	 width="360px" height="216px" viewBox="0 0 360 216" enable-background="new 0 0 360 216" xml:space="preserve">
<g>
	<g>
		<g>
			<defs>
				<rect id="SVGID_1_" x="9.862" y="13.845" width="345.162" height="191.204"/>
			</defs>
			<clipPath id="SVGID_2_">
				<use xlink:href="#SVGID_1_"  overflow="visible"/>
			</clipPath>
			<path clip-path="url(#SVGID_2_)" fill="#EC2227" d="M74.27,38.042c-3.533,2.128-6.328,7.261-4.976,12.41
				c4.77-7.041,19.27-0.688,24.095-16.851c-3.217,2.587-7.414,3.327-9.529,3.085c7.903-3.272,12.424-14.896,5.35-22.842
				c2.085,9.368-9.831,10.182-19.189,11.933c-17.573,3.31-20.441,19.591-12.467,27.896C56.636,43.824,64.484,37.947,74.27,38.042
				L74.27,38.042L74.27,38.042z"/>
		</g>
		<g>
			<defs>
				<rect id="SVGID_3_" x="9.862" y="13.845" width="345.162" height="191.204"/>
			</defs>
			<clipPath id="SVGID_4_">
				<use xlink:href="#SVGID_3_"  overflow="visible"/>
			</clipPath>
			<path clip-path="url(#SVGID_4_)" fill="#EC2227" d="M43.418,62.315c0,0,1.392,3.25,1.404,6.455h40.562
				c0.005-3.245,1.403-6.455,1.403-6.455l-19.27-0.006c2.607-4.315,8.885-11.34,22.158-11.331
				c14.444,0.01,30.596,11.701,30.663,32.464c0.113,31.009-32.299,53.176-55.337,67.661C42.311,136.618,9.752,114.452,9.863,83.442
				C9.938,62.68,26.082,50.988,40.532,50.979c13.271-0.011,19.552,7.015,22.158,11.331L43.418,62.315L43.418,62.315L43.418,62.315
				L43.418,62.315z M69.927,94.292c0.589-8.188,0.782-15.639,2.579-21.048H57.686c1.793,5.409,1.991,12.861,2.579,21.048
				c0.727,10.124,2.554,39.114,2.554,39.114h4.557C67.375,133.406,69.197,104.416,69.927,94.292L69.927,94.292L69.927,94.292
				L69.927,94.292z"/>
		</g>
	</g>
	<path fill="#FFFFFF" d="M69.974,94.349c0.595-8.204,0.788-15.67,2.595-21.091H57.71c1.807,5.42,2.002,12.886,2.582,21.091
		c0.73,10.143,2.562,39.197,2.562,39.197h4.567C67.42,133.547,69.247,104.492,69.974,94.349L69.974,94.349L69.974,94.349z"/>
	<path fill="#FFFFFF" d="M43.411,62.315c0,0,1.398,3.247,1.412,6.466H85.46c0.005-3.255,1.41-6.466,1.41-6.466H43.411L43.411,62.315
		L43.411,62.315z"/>
	<path fill="#010101" d="M154.454,52.172l-3.242-9.426h-0.07l-3.347,9.426H154.454L154.454,52.172z M154.128,36.416l9.604,25.684
		h-5.866l-1.942-5.722h-9.6l-2.017,5.722h-5.683l9.71-25.684H154.128L154.128,36.416z"/>
	<path fill="#010101" d="M170.383,43.501v2.519h0.073c0.673-0.958,1.48-1.701,2.429-2.23c0.945-0.526,2.031-0.79,3.256-0.79
		c1.171,0,2.248,0.225,3.216,0.682c0.972,0.456,1.711,1.259,2.213,2.408c0.552-0.812,1.3-1.533,2.245-2.158
		c0.949-0.622,2.07-0.933,3.365-0.933c0.983,0,1.896,0.119,2.734,0.358s1.561,0.625,2.158,1.152c0.602,0.527,1.07,1.217,1.404,2.067
		c0.337,0.853,0.502,1.876,0.502,3.076v12.445h-5.107V51.56c0-0.624-0.025-1.211-0.07-1.764c-0.051-0.549-0.182-1.032-0.396-1.438
		c-0.216-0.41-0.531-0.732-0.955-0.973c-0.42-0.239-0.99-0.359-1.707-0.359c-0.719,0-1.303,0.139-1.746,0.414
		c-0.445,0.276-0.791,0.638-1.041,1.079c-0.25,0.444-0.421,0.948-0.502,1.51c-0.085,0.564-0.126,1.134-0.126,1.708v10.36h-5.108
		V51.665c0-0.55-0.015-1.095-0.038-1.636c-0.022-0.54-0.123-1.037-0.304-1.491c-0.181-0.456-0.481-0.823-0.898-1.099
		c-0.421-0.276-1.039-0.414-1.857-0.414c-0.236,0-0.559,0.052-0.954,0.163c-0.392,0.105-0.777,0.312-1.148,0.612
		c-0.375,0.299-0.688,0.73-0.954,1.295c-0.266,0.562-0.397,1.299-0.397,2.21v10.792h-5.108V43.5h4.819V43.501z"/>
	<path fill="#010101" d="M209.252,47.854c-0.612-0.67-1.541-1.006-2.79-1.006c-0.813,0-1.49,0.136-2.032,0.412
		c-0.537,0.276-0.969,0.617-1.295,1.027c-0.321,0.409-0.552,0.841-0.682,1.294c-0.131,0.454-0.211,0.863-0.23,1.222h8.309
		C210.29,49.508,209.863,48.525,209.252,47.854L209.252,47.854z M203.476,57.638c0.769,0.743,1.872,1.116,3.312,1.116
		c1.028,0,1.917-0.258,2.665-0.775c0.742-0.514,1.199-1.059,1.365-1.635h4.495c-0.716,2.23-1.821,3.826-3.306,4.784
		c-1.491,0.961-3.287,1.438-5.4,1.438c-1.461,0-2.779-0.233-3.953-0.7c-1.18-0.47-2.174-1.134-2.986-1.997
		c-0.818-0.863-1.445-1.895-1.893-3.093c-0.442-1.2-0.662-2.517-0.662-3.955c0-1.393,0.227-2.687,0.682-3.886
		c0.456-1.199,1.105-2.236,1.941-3.112c0.839-0.875,1.842-1.563,3.007-2.069c1.159-0.502,2.45-0.752,3.863-0.752
		c1.587,0,2.966,0.306,4.142,0.916c1.174,0.611,2.137,1.433,2.895,2.463c0.752,1.032,1.3,2.206,1.635,3.525
		c0.337,1.32,0.457,2.7,0.361,4.136h-13.418C202.293,55.696,202.707,56.894,203.476,57.638L203.476,57.638z"/>
	<path fill="#010101" d="M223.512,43.501v3.452h0.071c0.24-0.575,0.567-1.109,0.973-1.601c0.407-0.489,0.874-0.908,1.401-1.257
		c0.526-0.35,1.094-0.617,1.69-0.811c0.603-0.19,1.226-0.285,1.872-0.285c0.336,0,0.707,0.06,1.113,0.181v4.747
		c-0.24-0.05-0.527-0.09-0.863-0.125c-0.337-0.038-0.657-0.055-0.969-0.055c-0.938,0-1.727,0.155-2.373,0.467
		c-0.646,0.312-1.17,0.738-1.565,1.277c-0.397,0.54-0.678,1.169-0.849,1.89c-0.166,0.718-0.25,1.501-0.25,2.338V62.1h-5.109V43.503
		h4.857V43.501z"/>
	<path fill="#010101" d="M237.899,43.501v18.597h-5.108V43.501H237.899L237.899,43.501z M232.791,40.626v-4.21h5.108v4.21H232.791
		L232.791,40.626z"/>
	<path fill="#010101" d="M250.812,46.849c-0.813,0-1.495,0.186-2.048,0.557c-0.552,0.372-1.005,0.851-1.35,1.437
		c-0.347,0.589-0.592,1.237-0.738,1.945c-0.146,0.707-0.215,1.407-0.215,2.103c0,0.672,0.07,1.355,0.215,2.05
		c0.146,0.695,0.377,1.327,0.703,1.889c0.32,0.562,0.758,1.024,1.31,1.385c0.551,0.359,1.225,0.54,2.018,0.54
		c1.225,0,2.161-0.344,2.824-1.026c0.657-0.682,1.069-1.601,1.239-2.75h4.928c-0.336,2.469-1.294,4.351-2.881,5.646
		c-1.58,1.295-3.608,1.942-6.076,1.942c-1.391,0-2.669-0.233-3.829-0.7c-1.164-0.47-2.153-1.122-2.971-1.96
		c-0.812-0.84-1.45-1.841-1.907-3.005c-0.456-1.162-0.682-2.438-0.682-3.83c0-1.44,0.21-2.775,0.632-4.011
		c0.417-1.235,1.035-2.301,1.853-3.199c0.812-0.901,1.806-1.601,2.986-2.107c1.173-0.502,2.513-0.752,4.024-0.752
		c1.104,0,2.166,0.143,3.186,0.432c1.019,0.285,1.928,0.725,2.735,1.312c0.803,0.586,1.454,1.317,1.957,2.195
		c0.507,0.874,0.793,1.912,0.863,3.111h-4.999C254.254,47.915,252.994,46.849,250.812,46.849L250.812,46.849z"/>
	<path fill="#010101" d="M273.345,53.448c-0.321,0.108-0.671,0.198-1.041,0.271c-0.371,0.07-0.758,0.13-1.17,0.181
		c-0.406,0.045-0.812,0.105-1.221,0.178c-0.385,0.073-0.761,0.169-1.133,0.288c-0.372,0.121-0.698,0.281-0.974,0.487
		c-0.276,0.2-0.497,0.462-0.662,0.773c-0.171,0.311-0.257,0.708-0.257,1.184c0,0.457,0.086,0.842,0.257,1.154
		c0.165,0.312,0.396,0.558,0.682,0.736c0.285,0.181,0.622,0.306,1.009,0.379c0.381,0.07,0.777,0.107,1.182,0.107
		c1.01,0,1.789-0.168,2.341-0.504c0.549-0.336,0.959-0.738,1.225-1.205c0.261-0.467,0.426-0.941,0.48-1.42
		c0.061-0.482,0.09-0.863,0.09-1.151V53C273.939,53.192,273.671,53.339,273.345,53.448L273.345,53.448z M263.261,46.236
		c0.527-0.793,1.195-1.425,2.013-1.906c0.812-0.479,1.732-0.82,2.75-1.024C269.042,43.1,270.07,43,271.098,43
		c0.94,0,1.884,0.065,2.843,0.195c0.959,0.132,1.836,0.392,2.629,0.773c0.788,0.385,1.436,0.917,1.941,1.601
		c0.5,0.685,0.753,1.591,0.753,2.718v9.677c0,0.839,0.05,1.641,0.146,2.409c0.096,0.768,0.261,1.341,0.503,1.727h-5.182
		c-0.095-0.286-0.174-0.583-0.229-0.881c-0.06-0.298-0.104-0.605-0.13-0.917c-0.815,0.84-1.773,1.428-2.876,1.764
		c-1.104,0.336-2.228,0.502-3.383,0.502c-0.888,0-1.716-0.105-2.479-0.321c-0.768-0.216-1.44-0.552-2.018-1.008
		c-0.572-0.457-1.023-1.032-1.35-1.727c-0.321-0.697-0.481-1.522-0.481-2.484c0-1.053,0.186-1.922,0.557-2.604
		c0.372-0.686,0.848-1.23,1.436-1.639c0.587-0.409,1.259-0.714,2.017-0.915c0.753-0.207,1.516-0.366,2.283-0.487
		c0.766-0.12,1.519-0.215,2.266-0.288c0.745-0.073,1.4-0.179,1.979-0.324c0.577-0.143,1.029-0.351,1.365-0.627
		s0.492-0.677,0.467-1.206c0-0.55-0.091-0.989-0.267-1.312c-0.18-0.327-0.421-0.578-0.722-0.758
		c-0.301-0.178-0.646-0.295-1.043-0.355c-0.392-0.061-0.82-0.091-1.274-0.091c-1.01,0-1.797,0.216-2.374,0.647
		c-0.576,0.432-0.916,1.149-1.008,2.158h-5.108C262.434,48.023,262.729,47.026,263.261,46.236L263.261,46.236z"/>
	<path fill="#010101" d="M288.08,43.501v2.589h0.105c0.647-1.079,1.486-1.862,2.52-2.354c1.03-0.492,2.088-0.737,3.167-0.737
		c1.365,0,2.481,0.185,3.362,0.557c0.873,0.371,1.565,0.888,2.066,1.545c0.502,0.66,0.858,1.466,1.06,2.412
		c0.206,0.945,0.306,1.995,0.306,3.146v11.439h-5.107V51.595c0-1.536-0.236-2.68-0.718-3.435c-0.481-0.756-1.33-1.135-2.555-1.135
		c-1.393,0-2.398,0.414-3.021,1.242c-0.622,0.829-0.937,2.188-0.937,4.082v9.749h-5.105V43.5L288.08,43.501L288.08,43.501z"/>
	<polygon fill="#010101" points="149.291,72.758 149.291,85.428 162.656,85.428 162.656,72.758 169.92,72.758 169.92,105.776 
		162.656,105.776 162.656,91.532 149.291,91.532 149.291,105.776 142.034,105.776 142.034,72.758 	"/>
	<path fill="#010101" d="M190.057,87.462c-0.782-0.863-1.982-1.295-3.584-1.295c-1.051,0-1.918,0.179-2.613,0.532
		c-0.691,0.354-1.246,0.795-1.66,1.317c-0.417,0.524-0.713,1.079-0.883,1.666c-0.166,0.584-0.27,1.109-0.299,1.571h10.681
		C191.392,89.59,190.844,88.326,190.057,87.462L190.057,87.462z M182.635,100.041c0.988,0.958,2.404,1.435,4.252,1.435
		c1.328,0,2.468-0.332,3.426-0.994c0.954-0.662,1.54-1.366,1.757-2.105h5.781c-0.923,2.868-2.343,4.918-4.255,6.15
		c-1.912,1.235-4.227,1.853-6.939,1.853c-1.882,0-3.574-0.302-5.085-0.904c-1.51-0.603-2.79-1.456-3.839-2.567
		c-1.049-1.108-1.856-2.436-2.428-3.977c-0.567-1.54-0.853-3.236-0.853-5.088c0-1.787,0.291-3.453,0.877-4.994
		c0.587-1.541,1.42-2.875,2.497-4c1.081-1.126,2.367-2.012,3.861-2.66c1.496-0.647,3.152-0.974,4.971-0.974
		c2.035,0,3.812,0.396,5.322,1.179c1.51,0.788,2.75,1.845,3.723,3.169c0.969,1.327,1.671,2.838,2.102,4.534
		c0.432,1.697,0.588,3.467,0.463,5.316h-17.249C181.109,97.544,181.646,99.087,182.635,100.041L182.635,100.041z"/>
	<path fill="#010101" d="M216.006,94.654c-0.417,0.138-0.863,0.253-1.346,0.348c-0.476,0.09-0.977,0.168-1.5,0.23
		c-0.526,0.06-1.049,0.139-1.575,0.231c-0.491,0.09-0.979,0.215-1.456,0.369c-0.477,0.156-0.893,0.364-1.25,0.625
		c-0.35,0.261-0.637,0.592-0.852,0.994c-0.215,0.402-0.326,0.911-0.326,1.526c0,0.586,0.111,1.081,0.326,1.48
		c0.215,0.401,0.506,0.716,0.878,0.948c0.371,0.23,0.803,0.394,1.294,0.486c0.492,0.091,1.004,0.139,1.525,0.139
		c1.295,0,2.299-0.215,3.008-0.647c0.707-0.432,1.234-0.949,1.574-1.548c0.338-0.603,0.547-1.21,0.623-1.827
		c0.074-0.617,0.115-1.111,0.115-1.48v-2.453C216.769,94.323,216.421,94.516,216.006,94.654L216.006,94.654z M203.029,85.383
		c0.677-1.019,1.545-1.837,2.589-2.455c1.049-0.614,2.228-1.053,3.544-1.315c1.309-0.263,2.623-0.396,3.953-0.396
		c1.199,0,2.42,0.085,3.653,0.256c1.23,0.17,2.359,0.501,3.372,0.993c1.019,0.495,1.852,1.179,2.498,2.058
		c0.647,0.878,0.974,2.042,0.974,3.493v12.44c0,1.079,0.061,2.113,0.186,3.101c0.12,0.984,0.337,1.727,0.647,2.219h-6.664
		c-0.12-0.372-0.221-0.748-0.296-1.134c-0.081-0.384-0.136-0.778-0.165-1.179c-1.049,1.079-2.279,1.836-3.699,2.268
		c-1.42,0.432-2.865,0.647-4.346,0.647c-1.144,0-2.208-0.141-3.19-0.417c-0.989-0.278-1.853-0.709-2.59-1.294
		c-0.743-0.587-1.32-1.325-1.736-2.221s-0.622-1.96-0.622-3.191c0-1.357,0.235-2.474,0.713-3.352
		c0.481-0.881,1.094-1.581,1.852-2.105c0.757-0.522,1.619-0.919,2.59-1.18c0.973-0.26,1.951-0.469,2.94-0.622
		c0.982-0.155,1.956-0.28,2.91-0.372c0.954-0.093,1.802-0.23,2.544-0.416c0.738-0.186,1.324-0.454,1.758-0.809
		c0.432-0.356,0.632-0.874,0.602-1.551c0-0.708-0.115-1.271-0.347-1.688c-0.231-0.416-0.543-0.741-0.924-0.971
		c-0.386-0.231-0.833-0.387-1.345-0.461c-0.507-0.079-1.053-0.116-1.641-0.116c-1.295,0-2.312,0.276-3.051,0.833
		c-0.738,0.552-1.174,1.478-1.295,2.775h-6.568C201.965,87.679,202.352,86.398,203.029,85.383L203.029,85.383z"/>
	<path fill="#010101" d="M234.943,81.866v4.44h0.091c0.307-0.741,0.723-1.426,1.25-2.058c0.521-0.633,1.124-1.171,1.801-1.619
		c0.677-0.446,1.405-0.795,2.172-1.041c0.772-0.246,1.576-0.372,2.409-0.372c0.432,0,0.908,0.081,1.431,0.233v6.104
		c-0.307-0.06-0.677-0.116-1.108-0.16c-0.432-0.048-0.849-0.07-1.25-0.07c-1.199,0-2.218,0.2-3.052,0.6
		c-0.832,0.401-1.5,0.948-2.012,1.644c-0.507,0.693-0.869,1.5-1.084,2.428c-0.216,0.924-0.325,1.928-0.325,3.006v10.774h-6.57
		V81.866H234.943L234.943,81.866z"/>
	<path fill="#010101" d="M262.393,81.866v4.395h-4.812v11.838c0,1.109,0.186,1.852,0.557,2.221s1.108,0.555,2.218,0.555
		c0.372,0,0.729-0.015,1.063-0.045c0.342-0.03,0.663-0.079,0.974-0.141v5.089c-0.557,0.093-1.174,0.155-1.852,0.185
		c-0.678,0.031-1.34,0.046-1.988,0.046c-1.018,0-1.982-0.07-2.89-0.208c-0.907-0.138-1.71-0.41-2.403-0.811
		c-0.697-0.398-1.244-0.969-1.646-1.711c-0.396-0.738-0.598-1.711-0.598-2.911V86.26h-3.979v-4.396h3.979v-7.166h6.564v7.166
		L262.393,81.866L262.393,81.866z"/>
	<path fill="#010101" d="M154.454,131.818l-3.242-9.424h-0.07l-3.347,9.424H154.454L154.454,131.818z M154.128,116.063l9.604,25.683
		h-5.866l-1.942-5.72h-9.6l-2.017,5.72h-5.683l9.71-25.683H154.128L154.128,116.063z"/>
	<path fill="#010101" d="M169.719,137.124c0.231,0.397,0.521,0.721,0.88,0.971c0.364,0.252,0.775,0.438,1.242,0.558
		c0.467,0.12,0.952,0.181,1.456,0.181c0.361,0,0.737-0.042,1.134-0.125c0.397-0.084,0.758-0.216,1.079-0.396
		c0.323-0.181,0.597-0.418,0.812-0.72c0.215-0.299,0.32-0.677,0.32-1.132c0-0.767-0.509-1.345-1.53-1.729
		c-1.019-0.381-2.439-0.765-4.26-1.149c-0.743-0.167-1.47-0.364-2.178-0.594c-0.708-0.229-1.335-0.527-1.888-0.899
		c-0.551-0.371-0.995-0.84-1.33-1.401c-0.339-0.565-0.502-1.255-0.502-2.071c0-1.195,0.231-2.18,0.697-2.947
		c0.467-0.768,1.083-1.373,1.852-1.816c0.768-0.445,1.631-0.756,2.594-0.936c0.958-0.182,1.942-0.27,2.945-0.27
		c1.008,0,1.985,0.096,2.936,0.285c0.943,0.193,1.789,0.518,2.534,0.972c0.743,0.456,1.36,1.062,1.852,1.817
		c0.492,0.754,0.783,1.708,0.883,2.859h-4.859c-0.068-0.983-0.445-1.648-1.114-1.996c-0.672-0.348-1.465-0.521-2.371-0.521
		c-0.291,0-0.604,0.019-0.938,0.053c-0.336,0.036-0.643,0.114-0.918,0.233c-0.276,0.12-0.507,0.294-0.698,0.522
		c-0.196,0.228-0.291,0.534-0.291,0.918c0,0.454,0.171,0.825,0.507,1.114c0.333,0.287,0.771,0.521,1.309,0.703
		c0.543,0.178,1.16,0.34,1.857,0.483c0.69,0.144,1.4,0.301,2.118,0.469c0.743,0.165,1.47,0.371,2.178,0.61
		c0.706,0.241,1.335,0.557,1.887,0.953c0.551,0.396,0.999,0.889,1.334,1.475c0.332,0.588,0.502,1.312,0.502,2.176
		c0,1.225-0.246,2.248-0.737,3.076c-0.492,0.828-1.135,1.493-1.925,1.997c-0.791,0.502-1.699,0.855-2.718,1.062
		c-1.021,0.203-2.052,0.304-3.112,0.304c-1.079,0-2.132-0.108-3.161-0.324c-1.034-0.215-1.952-0.574-2.755-1.078
		c-0.803-0.501-1.461-1.169-1.978-1.995c-0.516-0.828-0.797-1.864-0.847-3.111h4.857
		C169.377,136.256,169.493,136.728,169.719,137.124L169.719,137.124z"/>
	<path fill="#010101" d="M189.038,137.124c0.226,0.397,0.517,0.721,0.878,0.971c0.362,0.252,0.773,0.438,1.239,0.558
		c0.472,0.12,0.954,0.181,1.46,0.181c0.356,0,0.738-0.042,1.135-0.125c0.393-0.084,0.752-0.216,1.079-0.396
		c0.321-0.181,0.593-0.418,0.808-0.72c0.217-0.299,0.321-0.677,0.321-1.132c0-0.767-0.507-1.345-1.525-1.729
		c-1.019-0.381-2.444-0.765-4.267-1.149c-0.742-0.167-1.465-0.364-2.172-0.594c-0.711-0.229-1.342-0.527-1.893-0.899
		c-0.551-0.371-0.996-0.84-1.332-1.401c-0.337-0.565-0.502-1.255-0.502-2.071c0-1.195,0.232-2.18,0.703-2.947
		c0.467-0.768,1.083-1.373,1.852-1.816c0.768-0.445,1.633-0.756,2.592-0.936c0.959-0.182,1.941-0.27,2.951-0.27
		c1.004,0,1.982,0.096,2.93,0.285c0.943,0.193,1.791,0.518,2.535,0.972c0.742,0.456,1.359,1.062,1.852,1.817
		c0.492,0.754,0.787,1.708,0.883,2.859h-4.858c-0.07-0.983-0.442-1.648-1.114-1.996s-1.465-0.521-2.373-0.521
		c-0.285,0-0.603,0.019-0.934,0.053c-0.336,0.036-0.644,0.114-0.918,0.233c-0.276,0.12-0.512,0.294-0.703,0.522
		c-0.19,0.228-0.286,0.534-0.286,0.918c0,0.454,0.166,0.825,0.503,1.114c0.336,0.287,0.772,0.521,1.314,0.703
		c0.537,0.178,1.153,0.34,1.852,0.483c0.693,0.144,1.4,0.301,2.123,0.469c0.742,0.165,1.465,0.371,2.172,0.61
		c0.709,0.241,1.34,0.557,1.893,0.953s0.994,0.889,1.33,1.475c0.336,0.588,0.502,1.312,0.502,2.176c0,1.225-0.246,2.248-0.738,3.076
		c-0.491,0.828-1.135,1.493-1.922,1.997c-0.793,0.502-1.696,0.855-2.715,1.062c-1.023,0.203-2.059,0.304-3.111,0.304
		c-1.078,0-2.139-0.108-3.166-0.324c-1.035-0.215-1.953-0.574-2.756-1.078c-0.803-0.501-1.463-1.169-1.979-1.995
		c-0.514-0.828-0.796-1.864-0.843-3.111h4.855C188.692,136.256,188.808,136.728,189.038,137.124L189.038,137.124z"/>
	<path fill="#010101" d="M208.8,134.643c0.146,0.707,0.392,1.343,0.737,1.904c0.352,0.564,0.812,1.013,1.385,1.35
		c0.577,0.336,1.295,0.505,2.158,0.505c0.869,0,1.592-0.169,2.178-0.505c0.587-0.337,1.055-0.785,1.405-1.35
		c0.347-0.562,0.592-1.197,0.739-1.904c0.139-0.708,0.214-1.434,0.214-2.178c0-0.742-0.075-1.473-0.214-2.193
		c-0.147-0.72-0.393-1.355-0.739-1.906c-0.351-0.553-0.818-1.002-1.405-1.35c-0.586-0.348-1.309-0.52-2.178-0.52
		c-0.863,0-1.581,0.174-2.158,0.52c-0.572,0.348-1.033,0.797-1.385,1.35c-0.346,0.551-0.592,1.187-0.737,1.906
		c-0.141,0.72-0.216,1.449-0.216,2.193C208.584,133.21,208.659,133.936,208.8,134.643L208.8,134.643z M204.158,128.42
		c0.457-1.211,1.104-2.242,1.947-3.093c0.838-0.854,1.842-1.511,3.02-1.979c1.174-0.467,2.494-0.701,3.955-0.701
		c1.465,0,2.789,0.234,3.979,0.701c1.185,0.469,2.197,1.126,3.036,1.979c0.839,0.851,1.485,1.882,1.942,3.093
		c0.455,1.21,0.688,2.56,0.688,4.045c0,1.488-0.232,2.83-0.688,4.03c-0.457,1.198-1.105,2.225-1.942,3.075
		c-0.839,0.852-1.852,1.506-3.036,1.96c-1.189,0.454-2.514,0.683-3.979,0.683c-1.461,0-2.781-0.229-3.955-0.683
		c-1.178-0.454-2.184-1.108-3.02-1.96c-0.844-0.851-1.49-1.877-1.947-3.075c-0.452-1.2-0.683-2.542-0.683-4.03
		C203.476,130.979,203.706,129.63,204.158,128.42L204.158,128.42z"/>
	<path fill="#010101" d="M234.913,126.496c-0.812,0-1.494,0.185-2.047,0.557c-0.552,0.371-1.003,0.85-1.35,1.438
		c-0.346,0.587-0.593,1.237-0.737,1.941c-0.146,0.709-0.216,1.41-0.216,2.105c0,0.672,0.07,1.355,0.216,2.05
		c0.145,0.695,0.376,1.324,0.702,1.89c0.321,0.562,0.758,1.024,1.31,1.385c0.552,0.359,1.225,0.54,2.018,0.54
		c1.224,0,2.162-0.342,2.824-1.027c0.657-0.682,1.069-1.601,1.24-2.752h4.927c-0.336,2.472-1.294,4.353-2.88,5.647
		c-1.581,1.295-3.608,1.942-6.077,1.942c-1.391,0-2.67-0.233-3.829-0.7c-1.164-0.47-2.152-1.121-2.971-1.96
		c-0.812-0.841-1.449-1.842-1.906-3.005c-0.457-1.162-0.682-2.439-0.682-3.83c0-1.44,0.211-2.775,0.633-4.012
		c0.414-1.234,1.033-2.301,1.852-3.201c0.812-0.898,1.805-1.602,2.984-2.103c1.175-0.504,2.515-0.755,4.025-0.755
		c1.104,0,2.168,0.143,3.187,0.432c1.019,0.285,1.927,0.725,2.734,1.312c0.803,0.586,1.455,1.318,1.957,2.193
		c0.508,0.875,0.793,1.914,0.863,3.111h-4.998C238.356,127.562,237.097,126.496,234.913,126.496L234.913,126.496z"/>
	<path fill="#010101" d="M251.931,123.149v18.597h-5.108v-18.597H251.931L251.931,123.149z M246.822,120.271v-4.208h5.108v4.208
		H246.822L246.822,120.271z"/>
	<path fill="#010101" d="M266.729,133.095c-0.321,0.107-0.673,0.198-1.043,0.271c-0.372,0.07-0.758,0.131-1.17,0.179
		c-0.406,0.05-0.812,0.108-1.22,0.181c-0.386,0.073-0.763,0.169-1.134,0.288c-0.371,0.12-0.698,0.282-0.974,0.484
		c-0.276,0.206-0.498,0.462-0.663,0.776c-0.17,0.311-0.256,0.707-0.256,1.186c0,0.454,0.086,0.839,0.256,1.148
		c0.165,0.314,0.396,0.561,0.683,0.739c0.286,0.18,0.622,0.306,1.008,0.379c0.382,0.07,0.778,0.107,1.185,0.107
		c1.008,0,1.786-0.167,2.338-0.505c0.552-0.336,0.959-0.737,1.225-1.204c0.261-0.469,0.427-0.941,0.481-1.42
		c0.061-0.481,0.091-0.865,0.091-1.151v-1.907C267.32,132.839,267.055,132.987,266.729,133.095L266.729,133.095z M256.642,125.883
		c0.527-0.792,1.195-1.428,2.012-1.906c0.813-0.479,1.732-0.819,2.751-1.025c1.019-0.204,2.048-0.305,3.076-0.305
		c0.938,0,1.882,0.066,2.84,0.195c0.959,0.134,1.837,0.393,2.63,0.776c0.788,0.383,1.435,0.915,1.942,1.601
		c0.502,0.682,0.751,1.588,0.751,2.715v9.674c0,0.842,0.051,1.645,0.146,2.412s0.262,1.343,0.502,1.727h-5.179
		c-0.095-0.288-0.176-0.582-0.232-0.881c-0.059-0.301-0.105-0.604-0.129-0.917c-0.812,0.84-1.771,1.426-2.875,1.764
		c-1.104,0.334-2.228,0.502-3.382,0.502c-0.889,0-1.717-0.108-2.48-0.324c-0.768-0.215-1.439-0.55-2.017-1.006
		c-0.572-0.457-1.024-1.031-1.35-1.727c-0.32-0.695-0.481-1.523-0.481-2.482c0-1.056,0.185-1.925,0.557-2.609
		c0.371-0.683,0.847-1.227,1.435-1.635c0.587-0.407,1.26-0.712,2.018-0.919c0.752-0.203,1.515-0.363,2.283-0.483
		s1.521-0.216,2.269-0.288c0.743-0.07,1.4-0.18,1.977-0.324c0.578-0.144,1.028-0.354,1.365-0.629s0.488-0.678,0.467-1.205
		c0-0.553-0.091-0.988-0.266-1.312c-0.182-0.322-0.422-0.577-0.723-0.754c-0.301-0.182-0.647-0.303-1.043-0.362
		c-0.392-0.058-0.818-0.087-1.275-0.087c-1.008,0-1.796,0.215-2.372,0.646c-0.578,0.432-0.914,1.148-1.01,2.158h-5.107
		C255.814,127.671,256.11,126.674,256.642,125.883L256.642,125.883z"/>
	<path fill="#010101" d="M286.821,123.149v3.417h-3.744v9.208c0,0.863,0.146,1.44,0.43,1.727c0.287,0.288,0.863,0.432,1.726,0.432
		c0.289,0,0.565-0.01,0.831-0.036c0.266-0.021,0.517-0.06,0.758-0.107v3.957c-0.432,0.073-0.913,0.12-1.44,0.144
		c-0.527,0.024-1.043,0.037-1.547,0.037c-0.791,0-1.543-0.055-2.249-0.163c-0.705-0.107-1.333-0.315-1.869-0.629
		c-0.542-0.312-0.969-0.755-1.279-1.33c-0.312-0.577-0.467-1.334-0.467-2.267v-10.972h-3.091v-3.417h3.091v-5.575h5.108v5.575
		H286.821L286.821,123.149z"/>
	<path fill="#010101" d="M294.514,123.149v18.597h-5.11v-18.597H294.514L294.514,123.149z M289.403,120.271v-4.208h5.11v4.208
		H289.403L289.403,120.271z"/>
	<path fill="#010101" d="M303.291,134.643c0.146,0.707,0.391,1.343,0.738,1.904c0.351,0.564,0.812,1.013,1.384,1.35
		c0.575,0.336,1.295,0.505,2.158,0.505c0.869,0,1.591-0.169,2.176-0.505c0.589-0.337,1.057-0.785,1.407-1.35
		c0.346-0.562,0.591-1.197,0.738-1.904c0.14-0.708,0.215-1.434,0.215-2.178c0-0.742-0.076-1.473-0.215-2.193
		c-0.147-0.72-0.393-1.355-0.738-1.906c-0.351-0.553-0.818-1.002-1.407-1.35c-0.585-0.348-1.307-0.52-2.176-0.52
		c-0.863,0-1.583,0.174-2.158,0.52c-0.572,0.348-1.033,0.797-1.384,1.35c-0.348,0.551-0.593,1.187-0.738,1.906
		c-0.142,0.72-0.216,1.449-0.216,2.193C303.075,133.21,303.149,133.936,303.291,134.643L303.291,134.643z M298.654,128.42
		c0.455-1.211,1.104-2.242,1.94-3.093c0.839-0.854,1.847-1.511,3.021-1.979c1.174-0.467,2.493-0.701,3.954-0.701
		c1.465,0,2.789,0.234,3.979,0.701c1.182,0.469,2.197,1.126,3.036,1.979c0.836,0.851,1.484,1.882,1.941,3.093
		c0.457,1.21,0.688,2.56,0.688,4.045c0,1.488-0.231,2.83-0.688,4.03c-0.457,1.198-1.105,2.225-1.941,3.075
		c-0.839,0.852-1.854,1.506-3.036,1.96c-1.189,0.454-2.514,0.683-3.979,0.683c-1.461,0-2.78-0.229-3.954-0.683
		c-1.175-0.454-2.184-1.108-3.021-1.96c-0.838-0.851-1.485-1.877-1.94-3.075c-0.457-1.2-0.686-2.542-0.686-4.03
		C297.969,130.979,298.197,129.63,298.654,128.42L298.654,128.42z"/>
	<path fill="#010101" d="M325.38,123.149v2.589h0.104c0.648-1.078,1.487-1.863,2.521-2.355c1.029-0.49,2.088-0.736,3.167-0.736
		c1.365,0,2.484,0.186,3.362,0.559c0.873,0.371,1.565,0.885,2.066,1.545c0.502,0.659,0.859,1.463,1.061,2.411
		c0.205,0.946,0.305,1.995,0.305,3.147v11.438h-5.108v-10.504c0-1.535-0.235-2.679-0.718-3.434
		c-0.479-0.756-1.329-1.135-2.554-1.135c-1.39,0-2.401,0.412-3.021,1.241c-0.621,0.829-0.934,2.188-0.934,4.083v9.747h-5.108
		v-18.597L325.38,123.149L325.38,123.149z"/>
	<path fill="#010101" d="M349.417,135.885c0.785,0,1.48-0.077,1.48-1.001c0-0.771-0.753-0.863-1.385-0.863h-1.265v1.864H349.417
		L349.417,135.885z M348.247,139.506h-1.048v-6.379h2.418c1.541,0,2.329,0.54,2.329,1.831c0,1.157-0.708,1.634-1.667,1.741
		l1.787,2.806h-1.185l-1.651-2.728h-0.982L348.247,139.506L348.247,139.506z M349.387,131.447c-2.496,0-4.436,1.956-4.436,4.762
		c0,2.619,1.695,4.76,4.436,4.76c2.464,0,4.405-1.939,4.405-4.76C353.792,133.403,351.851,131.447,349.387,131.447L349.387,131.447z
		 M349.387,141.968c-3.312,0-5.67-2.478-5.67-5.759c0-3.469,2.62-5.764,5.67-5.764c3.021,0,5.638,2.295,5.638,5.764
		C355.024,139.674,352.407,141.968,349.387,141.968L349.387,141.968z"/>
	<polygon fill="#EC2227" points="144.169,172.479 148.272,172.479 148.272,198.175 144.169,198.175 	"/>
	<path fill="#EC2227" d="M152.838,179.567h4.105v18.607h-4.105V179.567L152.838,179.567z M152.838,172.479h4.105v3.887h-4.105
		V172.479L152.838,172.479z"/>
	<path fill="#EC2227" d="M159.562,179.567h3.061v-1.548c0-4.75,2.484-5.54,5.146-5.54c1.297,0,2.23,0.069,2.878,0.251v3.204
		c-0.537-0.146-1.079-0.218-1.907-0.218c-1.116,0-2.015,0.396-2.015,1.944v1.906h3.491v3.059h-3.491v15.549h-4.102v-15.549h-3.061
		V179.567L159.562,179.567z"/>
	<path fill="#EC2227" d="M185.503,187.233c-0.144-2.591-1.904-4.932-4.677-4.932c-2.842,0-4.784,2.161-4.896,4.932H185.503
		L185.503,187.233z M175.931,189.933c0,2.916,1.585,5.507,5.003,5.507c2.373,0,3.814-1.043,4.533-3.097h3.888
		c-0.898,4.067-4.354,6.336-8.42,6.336c-5.832,0-9.105-4.067-9.105-9.79c0-5.289,3.455-9.825,8.997-9.825
		c5.866,0,9.464,5.292,8.782,10.87L175.931,189.933L175.931,189.933z"/>
	<path fill="#010101" d="M202.763,179.605h2.268v18.569h-2.268V179.605L202.763,179.605z M202.763,172.479h2.268v3.634h-2.268
		V172.479L202.763,172.479z"/>
	<path fill="#010101" d="M220.502,185.04c-0.107-2.809-2.268-4.068-4.857-4.068c-2.018,0-4.391,0.79-4.391,3.202
		c0,2.018,2.303,2.734,3.852,3.131l3.021,0.685c2.591,0.396,5.292,1.907,5.292,5.146c0,4.03-3.996,5.579-7.45,5.579
		c-4.317,0-7.271-2.016-7.63-6.55h2.268c0.18,3.059,2.447,4.641,5.47,4.641c2.123,0,5.073-0.936,5.073-3.526
		c0-2.158-2.016-2.879-4.066-3.383l-2.914-0.646c-2.953-0.794-5.184-1.799-5.184-4.968c0-3.778,3.705-5.219,6.982-5.219
		c3.705,0,6.656,1.943,6.802,5.977L220.502,185.04L220.502,185.04z"/>
	<polygon fill="#010101" points="234.811,179.605 237.223,179.605 241.972,195.514 242.044,195.514 246.578,179.605 
		249.135,179.605 253.669,195.514 253.741,195.514 258.491,179.605 260.902,179.605 254.929,198.175 252.444,198.175 
		247.875,182.556 247.803,182.556 243.269,198.175 240.785,198.175 	"/>
	<path fill="#010101" d="M263.301,172.479h2.267v10.327h0.072c0.828-2.231,3.307-3.744,5.939-3.744c5.216,0,6.799,2.736,6.799,7.164
		v11.948h-2.265v-11.59c0-3.201-1.044-5.613-4.715-5.613c-3.6,0-5.759,2.734-5.83,6.371v10.832h-2.267L263.301,172.479
		L263.301,172.479z"/>
	<path fill="#010101" d="M280.563,179.605h2.408l6.118,15.834l5.725-15.834h2.269l-8.062,21.411
		c-1.298,3.132-2.053,4.033-4.896,4.033c-0.9-0.038-1.369-0.038-1.729-0.181v-1.907c0.542,0.107,1.044,0.179,1.546,0.179
		c2.018,0,2.486-1.188,3.242-2.914l0.792-2.125L280.563,179.605L280.563,179.605z"/>
	<path fill="#010101" d="M310.275,184.941h-0.878v-4.455h-0.028l-1.746,4.455h-0.559l-1.748-4.455h-0.025v4.455h-0.881v-5.336h1.36
		l1.594,4.054l1.566-4.054h1.346L310.275,184.941L310.275,184.941z M303.32,180.317h-1.671v4.624h-0.88v-4.624h-1.671v-0.712h4.223
		L303.32,180.317L303.32,180.317z"/>
</g>
</svg>
